<svg xmlns="http://www.w3.org/2000/svg" width="51" height="50" viewBox="0 0 51 50" fill="none">
  <path d="M25.19 1.30005C25.2365 1.3233 25.2391 1.34865 25.2579 1.39673C25.2648 1.41384 25.2717 1.43095 25.2788 1.44858C25.2863 1.46729 25.2938 1.48599 25.3015 1.50526C25.395 1.73305 25.5074 1.94686 25.6272 2.16183C25.7059 2.30821 25.7708 2.45616 25.8294 2.6117C25.8378 2.63396 25.8462 2.65622 25.8547 2.67848C26.0714 3.25109 26.2802 3.82519 26.44 4.41672C26.4431 4.42812 26.4462 4.43953 26.4494 4.45129C26.7759 5.6606 26.8918 6.8763 26.9474 8.12459C26.9489 8.15751 26.9489 8.15751 26.9504 8.1911C26.9528 8.24963 26.9549 8.30816 26.9567 8.36671C26.9572 8.38218 26.9578 8.39764 26.9583 8.41358C26.9608 8.54439 26.9441 8.67204 26.9268 8.80148C26.9237 8.82572 26.9205 8.84996 26.9174 8.8742C26.9091 8.93839 26.9006 9.00256 26.8921 9.06672C26.8834 9.13292 26.8748 9.19914 26.8662 9.26536C26.8376 9.4855 26.8085 9.70558 26.7782 9.9255C26.7762 9.9401 26.7742 9.9547 26.7721 9.96974C26.7634 10.0332 26.7545 10.0967 26.7454 10.1601C26.7071 10.3844 26.7071 10.3844 26.7827 10.5907C26.7965 10.612 26.8101 10.6334 26.8238 10.6549C26.8315 10.6669 26.8393 10.679 26.8472 10.6915C26.9011 10.7779 26.9509 10.8668 27.0015 10.9553C27.0674 11.0701 27.1338 11.1845 27.2022 11.2978C27.2275 11.3403 27.2512 11.3835 27.2744 11.4271C27.3283 11.5268 27.3873 11.6216 27.4511 11.7152C27.5239 11.8242 27.5889 11.9378 27.6549 12.0509C27.7705 12.2489 27.8941 12.4377 28.0348 12.6188C28.1189 12.728 28.2016 12.8379 28.2817 12.95C28.3709 13.0747 28.4632 13.1968 28.5564 13.3185C28.6308 13.4157 28.7041 13.5138 28.7765 13.6125C29.0001 13.9182 29.0001 13.9182 29.2477 14.2042C29.2882 14.248 29.3257 14.2931 29.363 14.3396C29.4305 14.4236 29.5029 14.5018 29.5767 14.5802C29.6308 14.6379 29.6823 14.6966 29.7317 14.7584C29.8077 14.8533 29.8903 14.9413 29.9734 15.0299C30.0462 15.1076 30.1156 15.1879 30.1844 15.269C30.3341 15.445 30.4867 15.6177 30.6529 15.7785C30.683 15.8095 30.7107 15.8408 30.7387 15.8737C30.8306 15.9796 30.932 16.0765 31.0317 16.175C31.0715 16.2144 31.1113 16.2538 31.151 16.2933C31.1643 16.3064 31.1643 16.3064 31.1779 16.3198C31.224 16.3656 31.2679 16.4125 31.3103 16.4619C31.3798 16.5422 31.4549 16.6168 31.5303 16.6916C31.5563 16.7173 31.5822 16.7432 31.6081 16.769C31.6632 16.8238 31.7183 16.8786 31.7734 16.9334C31.8373 16.9969 31.9012 17.0605 31.9651 17.1242C31.9904 17.1494 32.0158 17.1746 32.0412 17.1997C32.1057 17.2639 32.1699 17.3279 32.229 17.3973C32.3186 17.5018 32.4181 17.5972 32.5155 17.6944C32.5374 17.7163 32.5594 17.7383 32.5813 17.7602C32.6271 17.8061 32.6729 17.8518 32.7188 17.8976C32.7772 17.956 32.8356 18.0144 32.894 18.0729C32.9392 18.1182 32.9845 18.1634 33.0297 18.2087C33.0513 18.2302 33.0728 18.2517 33.0943 18.2733C33.2418 18.4215 33.2418 18.4215 33.3975 18.5612C33.4391 18.5969 33.4767 18.6358 33.515 18.675C33.5662 18.727 33.6178 18.7777 33.6734 18.825C33.7376 18.8798 33.7964 18.9393 33.8556 18.9993C33.899 19.0431 33.9431 19.085 33.99 19.125C34.0456 19.1724 34.0971 19.2231 34.1484 19.275C34.1993 19.3266 34.2504 19.377 34.3057 19.424C34.3741 19.4823 34.4365 19.546 34.4996 19.6099C34.5555 19.6662 34.6131 19.7191 34.6735 19.7705C34.7291 19.82 34.7805 19.8737 34.8328 19.9267C34.8672 19.9607 34.9022 19.9926 34.939 20.024C35.0039 20.0794 35.0635 20.1396 35.1233 20.2003C35.1649 20.2423 35.2069 20.2823 35.2525 20.3198C35.3055 20.3637 35.3487 20.4132 35.3931 20.4655C35.4241 20.5009 35.4565 20.5338 35.49 20.5667C35.5334 20.6094 35.5744 20.6528 35.614 20.699C35.6568 20.7488 35.7016 20.7956 35.7484 20.8417C35.8055 20.8981 35.8587 20.9564 35.9109 21.0173C35.9416 21.0519 35.9738 21.0843 36.0067 21.1167C36.06 21.1693 36.1098 21.2238 36.1585 21.2806C36.1808 21.3061 36.2036 21.3312 36.2268 21.3559C36.3214 21.457 36.4062 21.5626 36.4895 21.6731C36.5526 21.7567 36.6174 21.8388 36.6838 21.9198C36.7743 22.0304 36.8631 22.1422 36.951 22.2548C36.9889 22.3033 37.027 22.3516 37.065 22.4C37.1106 22.4579 37.156 22.5158 37.2014 22.5739C37.283 22.6783 37.3656 22.7818 37.4494 22.8844C37.5287 22.9815 37.6061 23.0799 37.6821 23.1795C37.7344 23.248 37.7878 23.3155 37.8412 23.3831C37.8632 23.4109 37.8849 23.4388 37.9067 23.4667C37.9144 23.4764 37.9222 23.4861 37.9301 23.4961C38.0057 23.5934 38.0667 23.6979 38.1286 23.8042C38.1523 23.8447 38.176 23.885 38.1998 23.9254C38.2059 23.9358 38.2119 23.9461 38.2182 23.9567C38.2702 24.0451 38.3234 24.1329 38.3769 24.2205C38.4309 24.3089 38.4846 24.3976 38.5383 24.4863C38.5554 24.5146 38.5726 24.5429 38.5898 24.5713C38.7851 24.8947 38.961 25.2259 39.1294 25.5641C39.1498 25.6049 39.1702 25.6458 39.1905 25.6866C39.3718 26.0499 39.5427 26.4127 39.6791 26.7955C39.7161 26.8986 39.7563 27 39.7977 27.1014C40.0442 27.7089 40.252 28.3288 40.4573 28.9512C40.4753 29.0058 40.4935 29.0603 40.5122 29.1147C40.559 29.251 40.5975 29.3875 40.6302 29.5278C40.6351 29.5485 40.64 29.5692 40.6451 29.5905C40.6553 29.6339 40.6655 29.6773 40.6757 29.7207C40.6884 29.7753 40.7013 29.8298 40.7143 29.8844C40.7634 30.0913 40.8122 30.2982 40.8512 30.5074C40.8633 30.5718 40.8783 30.6337 40.8972 30.6964C40.9373 30.8408 40.9524 30.9901 40.972 31.1383C40.9764 31.171 40.9808 31.2038 40.9852 31.2365C40.9944 31.3047 41.0035 31.373 41.0126 31.4412C41.0242 31.5285 41.0359 31.6158 41.0477 31.7031C41.0568 31.7705 41.0659 31.8379 41.0749 31.9054C41.0792 31.9376 41.0835 31.9698 41.0879 32.0019C41.0939 32.0469 41.0999 32.0919 41.1058 32.1369C41.1076 32.15 41.1094 32.1632 41.1112 32.1768C41.1128 32.1891 41.1145 32.2015 41.1161 32.2143C41.1175 32.2249 41.1189 32.2355 41.1204 32.2464C41.1245 32.2976 41.1235 32.3487 41.1234 32.4C39.8067 32.4119 38.4901 32.4192 37.1734 32.4187C37.0164 32.4186 36.8594 32.4186 36.7024 32.4186C36.6851 32.4186 36.6851 32.4186 36.6673 32.4186C36.6082 32.4186 36.5491 32.4186 36.49 32.4186C36.0701 32.4186 35.6503 32.4186 35.2305 32.4185C34.8167 32.4184 34.4029 32.4183 33.9891 32.4183C33.9761 32.4183 33.9631 32.4183 33.9497 32.4183C33.8308 32.4183 33.712 32.4183 33.5931 32.4183C33.298 32.4183 33.003 32.4183 32.7079 32.4182C32.6945 32.4182 32.6811 32.4182 32.6673 32.4182C32.02 32.4182 31.3727 32.4181 30.7254 32.418C30.5017 32.4179 30.278 32.4179 30.0543 32.4179C30.0405 32.4179 30.0266 32.4179 30.0123 32.4179C29.363 32.4177 28.7138 32.4177 28.0645 32.4176C28.0222 32.4176 27.9799 32.4176 27.9376 32.4176C27.657 32.4176 27.3765 32.4176 27.0959 32.4176C26.5381 32.4175 25.9802 32.4175 25.4223 32.4174C25.3958 32.4174 25.3692 32.4174 25.3427 32.4174C24.1526 32.4173 22.9625 32.4172 21.7724 32.417C21.7558 32.417 21.7558 32.417 21.7388 32.417C21.1836 32.4169 20.6285 32.4168 20.0734 32.4167C20.0387 32.3475 20.0044 32.2782 19.9702 32.2088C19.9586 32.1853 19.947 32.1618 19.9352 32.1384C19.8576 31.9834 19.7994 31.8353 19.7567 31.6667C19.7479 31.6371 19.7389 31.6076 19.7296 31.5782C19.7143 31.5277 19.7016 31.4778 19.6911 31.4261C19.6793 31.3699 19.6621 31.319 19.6411 31.2657C19.607 31.1762 19.5894 31.087 19.574 30.9929C19.5635 30.9299 19.548 30.8754 19.5234 30.8167C19.5009 30.7234 19.4892 30.6282 19.4784 30.5329C19.4672 30.4344 19.4546 30.3412 19.4181 30.2483C19.3882 30.1654 19.388 30.0839 19.389 29.9968C19.3892 29.9697 19.3893 29.9426 19.3895 29.9156C19.3897 29.895 19.3897 29.895 19.3898 29.874C19.39 29.8361 19.3899 29.7983 19.3896 29.7605C19.3861 29.3021 19.4419 28.8603 19.518 28.4088C19.5339 28.3147 19.5489 28.2204 19.5637 28.126C19.6305 27.702 19.7165 27.3002 19.8664 26.8977C19.8962 26.8173 19.923 26.736 19.9498 26.6546C19.9735 26.5825 19.9979 26.5107 20.0223 26.4389C20.0342 26.4036 20.0461 26.3683 20.0578 26.333C20.14 26.0847 20.24 25.8568 20.3661 25.6277C20.4073 25.5514 20.4455 25.4736 20.4838 25.3959C20.554 25.2546 20.6261 25.1146 20.7002 24.9754C20.7263 24.9263 20.7518 24.877 20.7768 24.8273C20.8662 24.6507 20.9728 24.4927 21.09 24.3334C21.1259 24.2841 21.1616 24.2348 21.1973 24.1855C21.2063 24.1731 21.2153 24.1607 21.2246 24.148C21.2901 24.0574 21.3534 23.9655 21.4161 23.873C21.6086 23.5898 21.8193 23.3294 22.0508 23.0773C22.0896 23.0338 22.1264 22.9892 22.163 22.9438C22.2274 22.8639 22.2959 22.7889 22.366 22.714C22.418 22.6582 22.4673 22.6012 22.515 22.5417C22.5796 22.4613 22.6481 22.3857 22.7185 22.3104C22.7621 22.2638 22.8044 22.2168 22.8452 22.1678C22.9677 22.026 23.1146 21.9015 23.2564 21.7795C23.3016 21.7399 23.3458 21.6991 23.39 21.6584C23.4447 21.6081 23.4995 21.558 23.5557 21.5094C23.6254 21.449 23.6928 21.3862 23.7604 21.3234C23.8185 21.2696 23.8775 21.217 23.9374 21.1652C23.9862 21.122 24.0339 21.0777 24.0817 21.0334C24.1494 20.9706 24.2177 20.9087 24.2876 20.8484C24.3258 20.8145 24.3631 20.7799 24.4005 20.745C24.4901 20.6615 24.5811 20.5813 24.6767 20.5045C24.7281 20.4629 24.7783 20.4201 24.8286 20.3771C24.913 20.3052 24.9993 20.2361 25.0868 20.168C25.1843 20.0921 25.279 20.0131 25.3734 19.9334C25.3634 19.847 25.3226 19.7771 25.2832 19.7011C25.2679 19.6711 25.2526 19.641 25.2373 19.611C25.2134 19.5643 25.1894 19.5176 25.1654 19.4709C24.9564 19.065 24.8169 18.6391 24.6721 18.2073C24.6484 18.1367 24.6245 18.066 24.6007 17.9954C24.5595 17.8729 24.5184 17.7503 24.4774 17.6278C24.4508 17.5486 24.4239 17.4695 24.3969 17.3904C24.3141 17.1477 24.2434 16.9039 24.1807 16.6553C24.1717 16.6204 24.1628 16.5855 24.1538 16.5506C24.1324 16.4671 24.1111 16.3836 24.09 16.3C24.0786 16.3236 24.0786 16.3236 24.0669 16.3476C24.042 16.3963 24.0167 16.4323 23.9807 16.473C23.9707 16.4844 23.9607 16.4959 23.9504 16.5077C23.9234 16.5334 23.9234 16.5334 23.89 16.5334C23.8885 16.5514 23.8885 16.5514 23.8869 16.5698C23.8696 16.6299 23.834 16.6582 23.79 16.7C23.7704 16.7194 23.7508 16.7388 23.7313 16.7582C23.7209 16.7685 23.7105 16.7789 23.6997 16.7895C23.6041 16.8846 23.5093 16.9793 23.4234 17.0834C23.4158 17.0924 23.4082 17.1013 23.4004 17.1106C23.3688 17.1481 23.3382 17.1859 23.3088 17.225C23.271 17.2695 23.2301 17.304 23.1854 17.3411C23.1527 17.369 23.1527 17.369 23.115 17.4167C23.0747 17.4651 23.0331 17.5018 22.9848 17.5417C22.9526 17.569 22.9526 17.569 22.9161 17.6167C22.8718 17.6685 22.8265 17.7034 22.7717 17.743C22.7291 17.7749 22.6938 17.812 22.6567 17.85C22.6281 17.877 22.5992 17.9037 22.5702 17.9303C22.5559 17.9434 22.5416 17.9566 22.5268 17.9702C22.49 18 22.49 18 22.4567 18C22.4527 18.0097 22.4488 18.0193 22.4447 18.0292C22.419 18.0744 22.3889 18.1007 22.3494 18.1344C22.2975 18.179 22.2476 18.2235 22.2015 18.274C22.1541 18.3179 22.0986 18.3504 22.0445 18.3854C21.9906 18.4218 21.9485 18.4575 21.9077 18.5084C21.8721 18.5525 21.8391 18.5801 21.79 18.6084C21.7418 18.6362 21.7099 18.6625 21.6755 18.7063C21.6244 18.7706 21.5631 18.811 21.4952 18.8564C21.454 18.8836 21.454 18.8836 21.414 18.9261C21.3767 18.9634 21.3424 18.9883 21.2984 19.0167C21.2377 19.0561 21.1894 19.0968 21.14 19.15C21.1169 19.1741 21.0936 19.1981 21.0702 19.2219C21.059 19.2335 21.0478 19.2452 21.0362 19.2571C21.0067 19.2834 21.0067 19.2834 20.9734 19.2834C20.9697 19.293 20.9661 19.3027 20.9624 19.3126C20.9245 19.3761 20.861 19.4079 20.8005 19.4484C20.755 19.4847 20.7348 19.5165 20.7067 19.5667C20.6741 19.5899 20.6406 19.6121 20.6067 19.6334C20.5576 19.6724 20.5115 19.712 20.4671 19.7563C20.432 19.7914 20.3966 19.8232 20.3588 19.8553C20.3116 19.8959 20.2706 19.9378 20.2307 19.9855C20.1937 20.0294 20.1586 20.0629 20.1109 20.0948C20.056 20.1284 20.056 20.1284 20.0327 20.1735C20.005 20.2195 19.977 20.2461 19.9359 20.2803C19.8733 20.334 19.82 20.3905 19.7669 20.4534C19.7287 20.496 19.684 20.5301 19.64 20.5667C19.6097 20.6003 19.5804 20.6347 19.5512 20.6692C19.5234 20.7 19.5234 20.7 19.4775 20.7365C19.4382 20.7644 19.4382 20.7644 19.4182 20.8053C19.3829 20.8614 19.3387 20.8962 19.2874 20.9376C19.2555 20.9644 19.2555 20.9644 19.2411 20.9984C19.2163 21.0474 19.1792 21.0784 19.14 21.1167C19.1081 21.1529 19.0773 21.1901 19.0463 21.2271C18.9815 21.3039 18.915 21.3767 18.8432 21.4469C18.7675 21.5212 18.703 21.5983 18.64 21.6834C18.6117 21.7206 18.5832 21.7577 18.5546 21.7948C18.5478 21.8038 18.541 21.8127 18.534 21.8218C18.4219 21.9682 18.4219 21.9682 18.3629 22.0271C18.3257 22.0645 18.2971 22.1082 18.2667 22.1511C18.24 22.1834 18.24 22.1834 18.2056 22.2073C18.1708 22.231 18.1708 22.231 18.1596 22.2696C18.1297 22.3417 18.0781 22.3944 18.0275 22.4532C17.9538 22.5406 17.887 22.6253 17.8314 22.7256C17.7626 22.8399 17.6745 22.9466 17.5848 23.0448C17.5385 23.0976 17.5121 23.1547 17.4824 23.2178C17.4387 23.301 17.3846 23.3772 17.3318 23.4548C17.2846 23.5243 17.2402 23.5955 17.1963 23.6671C17.1734 23.7 17.1734 23.7 17.14 23.7167C17.1279 23.7497 17.1167 23.783 17.1067 23.8167C17.0957 23.8167 17.0847 23.8167 17.0734 23.8167C17.0691 23.831 17.0648 23.8453 17.0603 23.8601C17.0393 23.9188 17.0131 23.9691 16.9817 24.023C16.9716 24.0406 16.9614 24.0583 16.951 24.0765C16.9419 24.0898 16.9328 24.103 16.9234 24.1167C16.9124 24.1167 16.9014 24.1167 16.89 24.1167C16.888 24.1289 16.886 24.1411 16.884 24.1537C16.8735 24.1995 16.859 24.2337 16.837 24.2751C16.8298 24.2888 16.8226 24.3025 16.8151 24.3167C16.8075 24.3308 16.7999 24.3449 16.7921 24.3594C16.7847 24.3736 16.7772 24.3878 16.7695 24.4024C16.7354 24.4666 16.7008 24.5254 16.6567 24.5834C16.6463 24.6049 16.6366 24.6268 16.6275 24.649C16.6 24.7133 16.5685 24.7742 16.5348 24.8355C16.4862 24.9245 16.4425 25.0147 16.4005 25.107C16.369 25.1756 16.3344 25.2415 16.2973 25.3073C16.2468 25.399 16.2105 25.4917 16.1756 25.59C16.1493 25.6628 16.1182 25.7239 16.0746 25.7875C16.0488 25.8297 16.0367 25.8738 16.0225 25.9209C16.0014 25.9823 15.9749 26.0408 15.9484 26.1C15.9157 26.1732 15.8842 26.2455 15.8598 26.3219C15.84 26.3834 15.84 26.3834 15.8067 26.4334C15.7993 26.4683 15.7928 26.5034 15.7869 26.5386C15.764 26.6529 15.7234 26.7426 15.6671 26.8442C15.6367 26.9068 15.621 26.9657 15.6067 27.0334C15.6017 27.056 15.5968 27.0787 15.5918 27.1013C15.5893 27.1127 15.5869 27.124 15.5843 27.1357C15.5628 27.2327 15.5399 27.3244 15.4994 27.4157C15.424 27.5857 15.3762 27.7651 15.3577 27.95C15.3461 28.0626 15.3171 28.159 15.2788 28.2651C15.229 28.4068 15.2043 28.5526 15.1798 28.7003C15.1734 28.7334 15.1734 28.7334 15.1567 28.7834C15.1539 28.8102 15.1518 28.837 15.1501 28.8639C15.149 28.88 15.1478 28.8961 15.1466 28.9126C15.1444 28.9459 15.1422 28.9791 15.1403 29.0124C15.1334 29.1052 15.1187 29.189 15.0916 29.2782C15.0544 29.4009 15.0344 29.5229 15.017 29.6497C15.0119 29.6867 15.0066 29.7236 15.0012 29.7606C14.8769 30.6307 14.94 31.549 14.94 32.4167C13.081 32.4167 11.222 32.4167 9.3067 32.4167C9.34783 31.2857 9.34783 31.2857 9.3692 30.7656C9.37204 30.6966 9.37481 30.6275 9.37754 30.5584C9.38094 30.4721 9.38445 30.3858 9.38802 30.2995C9.38933 30.2675 9.39061 30.2355 9.39185 30.2036C9.40539 29.8559 9.44488 29.5147 9.49589 29.1706C9.49861 29.1522 9.50133 29.1338 9.50413 29.1148C9.52477 28.9751 9.54583 28.8355 9.56712 28.6959C9.57026 28.6753 9.57339 28.6547 9.57663 28.6335C9.66853 28.0325 9.77418 27.4451 9.93764 26.8592C9.98058 26.7046 10.0194 26.5492 10.0568 26.3932C10.1893 25.8405 10.3285 25.3028 10.5477 24.7768C10.6234 24.5949 10.6925 24.4106 10.7622 24.2263C10.7919 24.1479 10.8219 24.0697 10.8519 23.9914C10.9103 23.8391 10.9681 23.6866 11.0245 23.5335C11.1475 23.2013 11.2891 22.8877 11.4579 22.5763C11.5037 22.4917 11.5478 22.4063 11.5921 22.3209C11.608 22.2906 11.6238 22.2603 11.6396 22.2301C11.6823 22.1484 11.7246 22.0665 11.7667 21.9845C11.8095 21.9013 11.8525 21.8183 11.8958 21.7354C11.9258 21.6777 11.9553 21.6199 11.9846 21.5618C12.1418 21.256 12.3403 20.9738 12.5312 20.6883C12.5878 20.6035 12.644 20.5183 12.7 20.4331C12.8578 20.1934 13.0148 19.9554 13.1966 19.7331C13.2468 19.6711 13.2954 19.6079 13.3442 19.5448C13.3637 19.5197 13.3833 19.4946 13.4028 19.4695C13.462 19.3933 13.5208 19.3167 13.5796 19.2402C13.6428 19.158 13.7066 19.0763 13.7703 18.9945C13.8223 18.9278 13.8741 18.8609 13.9256 18.7937C13.9581 18.7513 13.9907 18.709 14.0234 18.6667C14.0405 18.6444 14.0405 18.6444 14.0579 18.6217C14.1241 18.5369 14.1943 18.4605 14.2712 18.3855C14.3022 18.3546 14.3306 18.3231 14.3588 18.2896C14.4279 18.2088 14.5042 18.135 14.5801 18.0606C14.6326 18.0088 14.6831 17.9564 14.7312 17.9006C14.8022 17.8182 14.8797 17.7428 14.9574 17.6667C15.023 17.6018 15.0851 17.5352 15.1454 17.4652C15.1885 17.4162 15.2343 17.37 15.2807 17.324C15.2901 17.3146 15.2995 17.3052 15.3093 17.2955C15.3675 17.2379 15.4272 17.1831 15.4896 17.1301C15.5417 17.0837 15.59 17.0337 15.6389 16.9842C15.6923 16.9304 15.7475 16.8804 15.8051 16.8313C15.849 16.792 15.8903 16.7503 15.9317 16.7084C15.9928 16.6464 16.0556 16.5878 16.1218 16.5313C16.1657 16.492 16.207 16.4503 16.2484 16.4084C16.2993 16.3568 16.3504 16.3064 16.4057 16.2594C16.4733 16.2018 16.5353 16.1391 16.5973 16.0755C16.6401 16.0319 16.6838 15.9907 16.7305 15.9513C16.8188 15.8743 16.9009 15.7911 16.9834 15.7079C17.0125 15.6786 17.0417 15.6493 17.0709 15.62C17.1329 15.5579 17.1948 15.4956 17.2567 15.4334C17.3285 15.3612 17.4004 15.289 17.4723 15.2169C17.5008 15.1882 17.5293 15.1595 17.5578 15.1308C17.5756 15.113 17.5933 15.0952 17.6111 15.0774C17.6264 15.062 17.6416 15.0466 17.6574 15.0308C17.6939 14.9949 17.7319 14.9612 17.7707 14.9277C17.8432 14.8648 17.911 14.798 17.9788 14.7301C17.9919 14.717 18.0051 14.7039 18.0187 14.6903C18.0618 14.6473 18.1049 14.6042 18.1479 14.5611C18.1781 14.5309 18.2083 14.5007 18.2384 14.4706C18.3015 14.4075 18.3646 14.3444 18.4276 14.2813C18.5002 14.2087 18.5728 14.1361 18.6454 14.0635C18.7157 13.9933 18.786 13.9231 18.8562 13.8528C18.8859 13.8231 18.9156 13.7934 18.9453 13.7637C18.987 13.7221 19.0286 13.6804 19.0701 13.6388C19.0823 13.6267 19.0944 13.6146 19.1069 13.6021C19.1729 13.5358 19.2361 13.468 19.2969 13.3969C19.3433 13.3439 19.3936 13.2948 19.4437 13.2454C19.4547 13.2344 19.4657 13.2234 19.4771 13.2121C19.5236 13.1659 19.5703 13.1197 19.6169 13.0735C19.6512 13.0395 19.6855 13.0055 19.7197 12.9714C19.7301 12.9612 19.7404 12.951 19.751 12.9405C19.8139 12.878 19.8733 12.8135 19.9311 12.7463C19.9666 12.7052 20.0033 12.6651 20.04 12.625C20.0878 12.5727 20.1352 12.5202 20.1817 12.4667C20.2422 12.3971 20.3044 12.3291 20.3666 12.261C20.3998 12.2243 20.4326 12.1874 20.465 12.15C20.5255 12.0804 20.5878 12.0125 20.6499 11.9443C20.6926 11.8972 20.7344 11.8494 20.7761 11.8014C20.8128 11.7598 20.8504 11.719 20.888 11.6782C20.9561 11.6035 21.0207 11.5268 21.0842 11.4482C21.1274 11.395 21.1717 11.3428 21.2161 11.2907C21.2794 11.2162 21.3412 11.1409 21.4019 11.0643C21.4526 11.0011 21.5041 10.9386 21.5557 10.8761C21.5659 10.8637 21.5761 10.8514 21.5866 10.8386C21.6065 10.8144 21.6264 10.7903 21.6464 10.7661C21.7056 10.6943 21.7647 10.6223 21.8234 10.55C21.8306 10.5412 21.8379 10.5323 21.8453 10.5232C21.9778 10.3607 22.1033 10.1936 22.2269 10.0243C22.2762 9.95668 22.3258 9.8893 22.3755 9.82192C22.3851 9.80876 22.3948 9.7956 22.4048 9.78204C22.4585 9.70909 22.5127 9.63648 22.5673 9.56419C22.7614 9.307 22.9387 9.04303 23.1078 8.76867C23.1396 8.71741 23.172 8.6665 23.2045 8.61567C23.3347 8.41177 23.4527 8.20512 23.5617 7.98922C23.6124 7.88914 23.664 7.78951 23.7154 7.68981C23.733 7.65565 23.7506 7.62148 23.7682 7.58729C23.7738 7.57639 23.7794 7.5655 23.7851 7.55427C23.7966 7.53202 23.808 7.50977 23.8193 7.4875C23.85 7.42773 23.8814 7.36844 23.9139 7.3096C24.0255 7.10589 24.1104 6.8968 24.1911 6.67921C24.2097 6.62965 24.2283 6.58012 24.247 6.53058C24.2594 6.49746 24.2719 6.46432 24.2842 6.43116C24.3143 6.35061 24.345 6.27039 24.3773 6.19069C24.4816 5.93306 24.5666 5.67094 24.6442 5.40422C24.6476 5.39266 24.651 5.38111 24.6544 5.36921C24.7722 4.96502 24.8604 4.55861 24.9317 4.1438C24.935 4.12458 24.935 4.12458 24.9385 4.10498C25.0033 3.73226 25.0443 3.36076 25.071 2.98349C25.0746 2.9325 25.0786 2.88153 25.0826 2.83057C25.0909 2.72354 25.0989 2.61649 25.1067 2.50942C25.1081 2.49082 25.1094 2.47222 25.1109 2.45305C25.1392 2.06885 25.1652 1.68449 25.19 1.30005ZM26.7567 22.5334C26.748 22.5557 26.748 22.5557 26.7391 22.5784C26.7012 22.6667 26.6528 22.7494 26.6056 22.833C26.5771 22.8836 26.5489 22.9343 26.5206 22.9851C26.5122 23.0002 26.5122 23.0002 26.5037 23.0155C26.3807 23.2364 26.2672 23.4613 26.1567 23.6886C26.1513 23.6997 26.1459 23.7107 26.1404 23.7221C26.1008 23.8034 26.0619 23.885 26.0234 23.9667C26.017 23.9801 26.0107 23.9935 26.0042 24.0073C25.8919 24.2455 25.7929 24.4877 25.7001 24.7342C25.6776 24.7935 25.6547 24.8527 25.6318 24.9118C25.529 25.1813 25.4575 25.4496 25.4067 25.7334C25.4035 25.751 25.4004 25.7687 25.3971 25.7868C25.3813 25.8781 25.3686 25.9675 25.3636 26.06C25.3627 26.0766 25.3627 26.0766 25.3618 26.0935C25.3552 26.2182 25.3508 26.343 25.3474 26.4679C25.3463 26.5068 25.345 26.5457 25.3437 26.5847C25.339 26.741 25.3414 26.8961 25.3483 27.0523C25.3491 27.0714 25.3499 27.0905 25.3507 27.1102C25.3527 27.1568 25.3547 27.2034 25.3567 27.25C25.3706 27.25 25.3844 27.25 25.3987 27.25C26.3069 27.25 27.2151 27.25 28.1234 27.25C28.147 27.2476 28.1706 27.2449 28.1942 27.2417C28.2148 27.239 28.2355 27.2362 28.2567 27.2334C28.2896 26.6216 28.2891 26.0444 28.1171 25.4521C28.1139 25.4408 28.1106 25.4295 28.1073 25.4179C28.02 25.1157 27.9112 24.8235 27.79 24.5334C27.7757 24.4986 27.7613 24.4637 27.747 24.4289C27.7114 24.3426 27.6756 24.2564 27.6396 24.1702C27.6178 24.118 27.5961 24.0658 27.5744 24.0135C27.5602 23.9796 27.5461 23.9456 27.5319 23.9116C27.5256 23.8964 27.5192 23.8811 27.5127 23.8654C27.4528 23.7221 27.3928 23.5789 27.3151 23.4441C27.3045 23.4257 27.294 23.4073 27.2831 23.3883C27.2718 23.3689 27.2606 23.3496 27.2494 23.3303C27.2377 23.3099 27.2259 23.2895 27.2142 23.2691C27.1843 23.2173 27.1543 23.1655 27.1243 23.1137C27.1072 23.0842 27.0902 23.0547 27.0731 23.0252C27.042 22.9713 27.0108 22.9174 26.9796 22.8636C26.9704 22.8476 26.9611 22.8316 26.9516 22.8151C26.8678 22.6708 26.8678 22.6708 26.7734 22.5334C26.7679 22.5334 26.7624 22.5334 26.7567 22.5334Z" fill="#B7183D"/>
  <path d="M9.79004 36.6499C11.7865 36.6499 13.783 36.6499 15.84 36.6499C15.9308 36.8314 15.9308 36.8314 16.0234 37.0166C16.0556 37.078 16.0878 37.1392 16.1213 37.1999C16.1295 37.2148 16.1376 37.2297 16.1461 37.2451C16.2226 37.3837 16.303 37.5199 16.3841 37.6559C16.4327 37.7373 16.4805 37.8191 16.5281 37.9011C16.5671 37.968 16.6061 38.0348 16.6452 38.1016C16.6637 38.1333 16.6821 38.165 16.7004 38.1967C16.7905 38.3527 16.8793 38.5003 16.9986 38.636C17.044 38.6878 17.0864 38.7413 17.1286 38.7957C17.2142 38.9056 17.3019 39.0137 17.39 39.1217C17.4306 39.1715 17.4708 39.2215 17.5109 39.2718C17.5213 39.2848 17.5317 39.2977 17.5424 39.3111C17.5635 39.3375 17.5843 39.364 17.6048 39.3908C17.6856 39.4936 17.7737 39.5866 17.8661 39.6791C17.8779 39.6909 17.8897 39.7027 17.9019 39.7149C17.9689 39.7812 18.0377 39.8443 18.109 39.9058C18.1548 39.9463 18.1974 39.9895 18.24 40.0332C18.3045 40.0985 18.3696 40.1613 18.4396 40.2207C18.4797 40.2554 18.518 40.2918 18.5567 40.328C18.6503 40.4134 18.75 40.4882 18.8518 40.5634C18.9253 40.6177 18.9973 40.6738 19.0692 40.7301C19.205 40.8363 19.3426 40.9401 19.4809 41.0431C19.525 41.076 19.5689 41.1092 19.6122 41.1431C19.7339 41.2377 19.8622 41.3143 19.9955 41.3908C20.1031 41.4531 20.2097 41.5172 20.3166 41.5808C20.3537 41.6028 20.3909 41.6247 20.4281 41.6466C20.4719 41.6723 20.5152 41.6987 20.5583 41.7253C20.7865 41.8641 21.0275 41.9667 21.2734 42.0697C21.3142 42.087 21.3551 42.1043 21.3959 42.1216C21.475 42.1552 21.5542 42.1885 21.6335 42.2217C21.6966 42.2481 21.7593 42.2749 21.8217 42.3028C22.0527 42.4053 22.293 42.4781 22.5342 42.552C22.5796 42.5659 22.6249 42.58 22.6702 42.5941C23.0452 42.7109 23.4153 42.8008 23.8025 42.8676C23.8239 42.8713 23.8452 42.875 23.8672 42.8788C24.1932 42.935 24.5165 42.9786 24.8468 42.9965C24.9063 42.9999 24.9656 43.0043 25.025 43.0088C25.1896 43.0197 25.3543 43.0221 25.5192 43.0228C25.5445 43.0229 25.5445 43.0229 25.5704 43.0231C25.8988 43.0237 26.2188 42.9922 26.5438 42.9481C26.6313 42.9363 26.7186 42.9264 26.8065 42.9194C27.2308 42.8853 27.6427 42.8097 28.0574 42.7176C28.1083 42.7064 28.1591 42.6954 28.21 42.6844C28.2601 42.6736 28.3102 42.6626 28.3602 42.6516C28.3836 42.6465 28.4069 42.6414 28.4303 42.6363C28.6615 42.5861 28.8844 42.5188 29.1042 42.4314C29.12 42.4252 29.1358 42.419 29.152 42.4127C29.2015 42.3932 29.251 42.3736 29.3005 42.3541C29.3331 42.3413 29.3657 42.3285 29.3983 42.3157C29.4957 42.2774 29.5929 42.2387 29.69 42.1999C29.7064 42.1934 29.7227 42.1869 29.7396 42.1802C29.9169 42.1097 30.0906 42.0392 30.2567 41.9447C30.2905 41.9259 30.3243 41.9072 30.3581 41.8884C30.3828 41.8746 30.3828 41.8746 30.4081 41.8604C30.4687 41.8265 30.5297 41.7934 30.5907 41.7603C30.6512 41.7275 30.7115 41.6945 30.7719 41.6614C30.8089 41.6412 30.8459 41.6209 30.8829 41.6007C30.9362 41.5716 30.9895 41.5423 31.0428 41.5131C31.0634 41.5018 31.0841 41.4904 31.1048 41.4791C31.3111 41.3664 31.5098 41.2491 31.6952 41.1041C31.7256 41.0807 31.7559 41.0573 31.7862 41.0339C31.8009 41.0225 31.8157 41.0111 31.8308 40.9993C31.8918 40.9524 31.9534 40.9063 32.015 40.8603C32.1297 40.7745 32.2436 40.6878 32.3567 40.5999C32.3779 40.5836 32.3779 40.5836 32.3995 40.567C32.5789 40.4268 32.7413 40.2679 32.9004 40.1056C32.9491 40.0561 32.9984 40.0087 33.0512 39.9636C33.1395 39.8873 33.2217 39.8047 33.3041 39.7222C33.3316 39.6948 33.3591 39.6676 33.3867 39.6403C33.49 39.5375 33.5843 39.4321 33.6734 39.3166C33.7025 39.2815 33.7322 39.247 33.7619 39.2124C33.8337 39.1284 33.9024 39.0423 33.97 38.955C34.0322 38.8752 34.0974 38.7985 34.1651 38.7234C34.3169 38.5509 34.4319 38.3506 34.5473 38.153C34.5751 38.1057 34.603 38.0583 34.6309 38.011C34.6376 37.9997 34.6443 37.9883 34.6512 37.9767C34.6997 37.8945 34.7499 37.8135 34.8015 37.7332C34.8715 37.6231 34.9303 37.5095 34.9865 37.392C35.0106 37.3418 35.0351 37.2918 35.0596 37.2418C35.0788 37.2025 35.098 37.1632 35.1171 37.1239C35.1261 37.1055 35.1351 37.0872 35.1443 37.0683C35.211 36.9304 35.2661 36.7931 35.3234 36.6499C37.3474 36.6499 39.3714 36.6499 41.4567 36.6499C41.4192 36.8186 41.4192 36.8186 41.3965 36.8795C41.3914 36.8933 41.3863 36.9072 41.3811 36.9214C41.3729 36.9433 41.3729 36.9433 41.3645 36.9657C41.3586 36.9814 41.3528 36.9972 41.3468 37.0135C41.3276 37.0652 41.3083 37.1169 41.289 37.1687C41.2615 37.2426 41.2341 37.3166 41.2066 37.3907C41.1962 37.4189 41.1962 37.4189 41.1855 37.4477C41.1396 37.5717 41.0949 37.696 41.051 37.8206C40.9085 38.2247 40.7517 38.6184 40.5739 39.0084C40.5514 39.0578 40.5294 39.1074 40.5077 39.1573C40.4238 39.3501 40.3304 39.5371 40.2338 39.7239C40.2189 39.7527 40.2041 39.7816 40.1893 39.8105C40.1158 39.9533 40.0416 40.0958 39.9669 40.238C39.9602 40.2507 39.9536 40.2633 39.9467 40.2764C39.8371 40.4843 39.7194 40.6853 39.5929 40.8834C39.5383 40.969 39.485 41.0552 39.4317 41.1416C39.4135 41.171 39.3953 41.2003 39.3771 41.2297C39.3419 41.2865 39.307 41.3433 39.2723 41.4003C39.1741 41.5599 39.0686 41.707 38.9493 41.8513C38.9025 41.9089 38.8578 41.968 38.813 42.027C38.8038 42.039 38.7947 42.051 38.7853 42.0634C38.7674 42.0868 38.7495 42.1103 38.7316 42.1338C38.6198 42.2807 38.5066 42.4265 38.3931 42.5721C38.3484 42.6294 38.3039 42.6868 38.26 42.7447C38.175 42.857 38.086 42.9634 37.99 43.0666C37.9742 43.0837 37.9584 43.1008 37.9426 43.118C37.9087 43.1548 37.8748 43.1916 37.8408 43.2284C37.7928 43.2802 37.745 43.3322 37.6973 43.3843C37.6898 43.3925 37.6823 43.4007 37.6745 43.4092C37.6372 43.4499 37.5999 43.4906 37.5627 43.5314C37.5247 43.5729 37.4867 43.6144 37.4486 43.6558C37.431 43.675 37.4134 43.6942 37.3958 43.7134C37.2662 43.8552 37.1335 43.9888 36.99 44.1166C36.9559 44.1477 36.9219 44.179 36.888 44.2103C36.8144 44.2778 36.7404 44.3447 36.6661 44.4114C36.6183 44.4545 36.5708 44.498 36.5234 44.5416C36.449 44.6099 36.3743 44.6776 36.299 44.7449C36.2695 44.7717 36.2402 44.7988 36.2113 44.8263C36.0902 44.9404 35.9622 45.0399 35.8282 45.1383C35.7576 45.1907 35.688 45.2444 35.6182 45.2978C35.4664 45.4138 35.3131 45.5276 35.159 45.6405C35.1264 45.6643 35.0939 45.6884 35.0615 45.7125C34.8889 45.8405 34.7123 45.963 34.5355 46.0852C34.4945 46.1135 34.4535 46.1419 34.4126 46.1703C34.3898 46.1861 34.367 46.2018 34.3442 46.2176C34.3345 46.2243 34.3248 46.2311 34.3148 46.238C34.1548 46.3483 33.9901 46.4458 33.8182 46.5364C33.7765 46.5584 33.7349 46.5805 33.6933 46.6026C33.683 46.6081 33.6727 46.6136 33.6621 46.6192C33.5857 46.6598 33.51 46.7015 33.4344 46.7436C33.2219 46.8615 33.0039 46.9673 32.7842 47.0711C32.7264 47.0984 32.6687 47.1262 32.6111 47.1541C32.3264 47.2902 32.0358 47.4076 31.7415 47.5209C31.6673 47.5495 31.5933 47.5784 31.5195 47.6079C31.1478 47.7564 30.7688 47.8804 30.3865 47.9988C30.2912 48.0283 30.1964 48.0588 30.1019 48.0906C29.7641 48.2031 29.4243 48.2752 29.0741 48.3381C29.0035 48.3508 28.9329 48.364 28.8622 48.3771C28.765 48.3951 28.6677 48.4129 28.5704 48.4305C28.4589 48.4507 28.3476 48.4714 28.2365 48.4933C27.8876 48.5618 27.5377 48.6112 27.1848 48.6541C27.1701 48.6559 27.1553 48.6577 27.1401 48.6595C26.7413 48.7082 26.3438 48.7494 25.9421 48.7634C25.9241 48.7642 25.9061 48.7649 25.8875 48.7656C25.2894 48.7878 24.6864 48.7145 24.0928 48.6489C24.0291 48.6419 23.9655 48.6351 23.9018 48.6284C23.2957 48.5651 22.6969 48.4709 22.1067 48.3166C22.0889 48.312 22.0711 48.3074 22.0528 48.3027C21.9147 48.2671 21.7768 48.2305 21.639 48.1937C21.6284 48.1908 21.6178 48.188 21.6069 48.1851C21.451 48.1433 21.2952 48.1012 21.1394 48.0588C21.1073 48.0501 21.0751 48.0413 21.0429 48.0326C20.549 47.8983 20.0639 47.7551 19.5883 47.5656C19.5002 47.5305 19.4118 47.4965 19.3233 47.4624C18.6152 47.1891 18.6152 47.1891 18.3577 47.0405C18.3217 47.02 18.2856 46.9995 18.2495 46.979C18.2224 46.9635 18.2224 46.9635 18.1946 46.9476C18.1242 46.9076 18.0534 46.8682 17.9826 46.8288C17.6614 46.65 17.3447 46.4672 17.038 46.2644C16.9339 46.1956 16.8287 46.1284 16.7234 46.0614C16.3832 45.8442 16.0515 45.6152 15.7206 45.3841C15.6583 45.3407 15.5958 45.2978 15.5329 45.2552C15.3693 45.1439 15.221 45.0274 15.0797 44.8888C15.05 44.8601 15.0192 44.833 14.988 44.8062C14.9239 44.7509 14.8617 44.6937 14.7995 44.6364C14.7191 44.5625 14.638 44.4895 14.5567 44.4166C14.515 44.379 14.4733 44.3415 14.4316 44.3039C14.4042 44.2794 14.3769 44.2548 14.3495 44.2302C14.2656 44.1549 14.1821 44.079 14.0991 44.0026C14.0577 43.9645 14.016 43.9267 13.974 43.8892C13.894 43.8178 13.8191 43.7462 13.7501 43.6641C13.7237 43.6337 13.6961 43.6059 13.6671 43.578C13.6199 43.5317 13.5783 43.4827 13.5369 43.4312C13.4794 43.3596 13.4194 43.2918 13.3567 43.2249C13.2822 43.1454 13.2124 43.0636 13.1443 42.9785C13.1048 42.9309 13.0629 42.8864 13.0202 42.8416C12.9085 42.7225 12.8152 42.5901 12.7199 42.4579C12.6721 42.3917 12.6238 42.326 12.5755 42.2603C12.566 42.2474 12.5565 42.2345 12.5467 42.2212C12.472 42.1198 12.3958 42.0197 12.3192 41.9197C12.2311 41.8046 12.1445 41.6888 12.0613 41.5701C12.0361 41.5346 12.0105 41.4994 11.9844 41.4646C11.8598 41.2976 11.7577 41.1183 11.6545 40.9376C11.6233 40.8831 11.5919 40.8288 11.5605 40.7746C11.5077 40.6836 11.4553 40.5924 11.4029 40.5012C11.3759 40.4543 11.3486 40.4075 11.3212 40.3608C10.9859 39.7844 10.712 39.1749 10.4588 38.5589C10.4235 38.4733 10.3875 38.388 10.3511 38.3029C10.1765 37.8941 10.0323 37.4833 9.90949 37.056C9.87765 36.9458 9.84222 36.8372 9.80464 36.7288C9.79004 36.6832 9.79004 36.6832 9.79004 36.6499Z" fill="white"/>
  <path d="M4.77338 32.7334C18.2539 32.7334 31.7344 32.7334 45.6234 32.7334C45.6234 33.8939 45.6234 35.0544 45.6234 36.2501C32.1429 36.2501 18.6624 36.2501 4.77338 36.2501C4.77338 35.0896 4.77338 33.9291 4.77338 32.7334Z" fill="#0F06B0"/>
  <path d="M17.5234 36.6499C17.9989 36.6456 18.4743 36.6424 18.9498 36.6404C19.1706 36.6395 19.3914 36.6382 19.6122 36.6361C19.8046 36.6342 19.997 36.6331 20.1895 36.6327C20.2914 36.6324 20.3932 36.6319 20.4951 36.6305C20.5911 36.6293 20.687 36.6289 20.7829 36.6292C20.8181 36.6291 20.8533 36.6288 20.8885 36.6281C21.168 36.6227 21.168 36.6227 21.2437 36.6902C21.282 36.7363 21.3116 36.7807 21.34 36.8332C21.3529 36.8516 21.3659 36.8699 21.3793 36.8879C21.3894 36.9025 21.3995 36.9171 21.4098 36.9322C21.4915 37.0423 21.5894 37.1252 21.6955 37.2107C21.7202 37.2307 21.7447 37.2511 21.7691 37.2715C21.8601 37.3474 21.9535 37.4203 22.0473 37.4926C22.064 37.5056 22.064 37.5056 22.081 37.5188C22.1644 37.5826 22.2506 37.6409 22.3382 37.6986C22.3885 37.7322 22.4377 37.7668 22.4869 37.8019C22.7765 38.0056 23.0807 38.1571 23.4037 38.3003C23.4404 38.3167 23.4769 38.3335 23.5133 38.3504C23.9943 38.5715 24.4866 38.7043 25.0161 38.7156C25.0579 38.7166 25.0996 38.7179 25.1414 38.7193C25.51 38.731 25.8731 38.7148 26.24 38.678C26.2579 38.6763 26.2757 38.6745 26.2941 38.6727C26.594 38.6421 26.8564 38.5748 27.1397 38.4729C27.1883 38.4554 27.2371 38.438 27.2858 38.4206C27.366 38.392 27.4461 38.363 27.5261 38.3337C27.5574 38.3224 27.5887 38.3111 27.62 38.3C27.824 38.2273 28.0083 38.1434 28.1921 38.0291C28.2152 38.015 28.2382 38.001 28.2613 37.9869C28.3063 37.9595 28.3512 37.9319 28.396 37.9041C28.4481 37.8718 28.5005 37.8401 28.5531 37.8086C28.7083 37.7144 28.8464 37.611 28.981 37.4894C29.0202 37.4546 29.0608 37.4215 29.1015 37.3884C29.1233 37.3707 29.1233 37.3707 29.1456 37.3526C29.1768 37.3273 29.208 37.3021 29.2392 37.2769C29.2553 37.2639 29.2714 37.2508 29.288 37.2374C29.3096 37.22 29.3096 37.22 29.3316 37.2023C29.4189 37.1277 29.4871 37.0462 29.5546 36.9541C29.5722 36.9303 29.5898 36.9066 29.6074 36.8829C29.6159 36.8715 29.6243 36.8602 29.633 36.8484C29.7541 36.6858 29.7541 36.6858 29.79 36.6499C29.8351 36.6483 29.8798 36.6477 29.9249 36.6479C29.9392 36.6479 29.9535 36.6479 29.9683 36.6479C30.0166 36.6478 30.0649 36.6479 30.1132 36.648C30.1477 36.648 30.1822 36.648 30.2167 36.648C30.3106 36.648 30.4045 36.6481 30.4985 36.6482C30.5965 36.6483 30.6946 36.6483 30.7926 36.6484C30.9785 36.6484 31.1643 36.6485 31.3501 36.6487C31.5616 36.6489 31.773 36.649 31.9845 36.6491C32.4197 36.6492 32.8549 36.6495 33.29 36.6499C33.2798 36.7038 33.2686 36.7491 33.2438 36.7981C33.2347 36.8164 33.2347 36.8164 33.2254 36.8349C33.2187 36.8479 33.2121 36.8608 33.2053 36.8742C33.1983 36.8879 33.1914 36.9015 33.1842 36.9156C33.1695 36.9446 33.1546 36.9736 33.1398 37.0026C33.1176 37.0459 33.0957 37.0893 33.0738 37.1328C32.9861 37.3054 32.8896 37.4663 32.7761 37.6231C32.751 37.6578 32.7266 37.6929 32.7021 37.728C32.6873 37.7488 32.6725 37.7697 32.6578 37.7905C32.6409 37.8143 32.6241 37.8381 32.6072 37.8619C32.5947 37.8796 32.5947 37.8796 32.5819 37.8976C32.557 37.9329 32.5321 37.9682 32.5072 38.0036C32.4198 38.1278 32.3319 38.2516 32.2432 38.3749C32.2346 38.3869 32.226 38.3988 32.2172 38.4111C32.1917 38.4464 32.1659 38.4815 32.14 38.5166C32.1321 38.5275 32.1241 38.5384 32.1159 38.5496C32.0328 38.6602 31.9376 38.7572 31.8398 38.8546C31.8221 38.8723 31.8044 38.8901 31.7867 38.9078C31.7497 38.9448 31.7128 38.9817 31.6757 39.0186C31.6288 39.0653 31.5819 39.1123 31.5352 39.1593C31.4987 39.1959 31.4621 39.2324 31.4255 39.2689C31.4082 39.2862 31.391 39.3034 31.3738 39.3207C31.2625 39.4324 31.1467 39.5351 31.0234 39.6332C30.9842 39.6662 30.9454 39.6997 30.9067 39.7332C30.8225 39.8058 30.7375 39.8771 30.6509 39.9468C30.6221 39.9706 30.5938 39.995 30.5661 40.0202C30.4028 40.166 30.2129 40.272 30.0261 40.3845C29.9663 40.4209 29.9075 40.4584 29.8487 40.4963C29.5771 40.6715 29.2896 40.8185 29.0019 40.9654C28.9099 41.0126 28.8202 41.0618 28.7316 41.1153C28.615 41.1832 28.4966 41.2245 28.3666 41.2608C28.344 41.2674 28.3213 41.2739 28.2987 41.2805C28.2388 41.2978 28.1788 41.3146 28.1188 41.3313C28.0815 41.3416 28.0442 41.3521 28.0069 41.3627C27.6057 41.4757 27.2046 41.5642 26.7916 41.6232C26.7354 41.6313 26.6797 41.6411 26.6239 41.6519C25.8187 41.8033 24.8958 41.7222 24.0979 41.5771C24.0451 41.5675 23.9922 41.5583 23.9393 41.5491C23.8401 41.5315 23.7413 41.5117 23.6427 41.4908C23.617 41.4854 23.5912 41.48 23.5654 41.4747C23.1555 41.3895 22.7814 41.2971 22.4122 41.0959C22.3159 41.045 22.2164 41.0011 22.1171 40.9562C21.9248 40.8678 21.7369 40.7726 21.5502 40.6729C21.5088 40.651 21.4672 40.6297 21.4255 40.6086C21.2314 40.5099 21.0489 40.3969 20.8667 40.278C20.8264 40.2519 20.786 40.2262 20.7454 40.2007C20.6021 40.1103 20.4672 40.0139 20.3359 39.9069C20.2952 39.8739 20.2543 39.8412 20.2134 39.8086C20.1922 39.7916 20.171 39.7746 20.1499 39.7576C20.1012 39.7183 20.0524 39.6797 20.002 39.6427C19.8682 39.5437 19.7501 39.4311 19.6328 39.3135C19.6249 39.3056 19.617 39.2977 19.6089 39.2895C19.5243 39.2046 19.4421 39.1184 19.364 39.0274C19.3353 38.9944 19.3049 38.9636 19.2734 38.9332C19.2087 38.8693 19.1492 38.8022 19.09 38.7332C19.0733 38.714 19.0566 38.6949 19.0398 38.6757C18.945 38.5669 18.8513 38.4575 18.7606 38.3453C18.7269 38.3042 18.6925 38.2639 18.6579 38.2236C18.5729 38.1247 18.4935 38.0227 18.4159 37.9179C18.3592 37.8415 18.3009 37.7666 18.2411 37.6926C18.1687 37.6029 18.0976 37.5123 18.0275 37.4207C18.0191 37.4097 18.0107 37.3987 18.002 37.3874C17.8787 37.2258 17.7615 37.0604 17.6484 36.8916C17.6363 36.8737 17.6241 36.8559 17.6117 36.8375C17.6002 36.8205 17.5888 36.8034 17.577 36.7858C17.5667 36.7705 17.5564 36.7552 17.5457 36.7394C17.5234 36.6999 17.5234 36.6999 17.5234 36.6499Z" fill="white"/>
  <path d="M19.4234 25.6833C19.4151 25.7674 19.3891 25.816 19.3421 25.8854C19.096 26.2794 18.9983 26.7524 18.8866 27.1974C18.8732 27.2509 18.8595 27.3044 18.8459 27.3578C18.5838 28.3039 18.5838 28.3039 18.4895 29.2751C18.49 29.3303 18.4892 29.3854 18.488 29.4406C18.484 29.6272 18.4851 29.8134 18.49 30C18.4904 30.0153 18.4908 30.0307 18.4913 30.0464C18.5133 30.7974 18.6565 31.5779 19.0623 32.2212C19.14 32.3488 19.14 32.3488 19.14 32.4334C18.1995 32.4334 17.259 32.4334 16.29 32.4334C16.29 32.3179 16.29 32.2024 16.29 32.0834C16.2899 32.0482 16.2897 32.0131 16.2896 31.977C16.2921 31.71 16.3255 31.4486 16.3619 31.1844C16.3644 31.1664 16.3669 31.1483 16.3694 31.1297C16.4574 30.4945 16.4574 30.4945 16.5391 30.2698C16.5622 30.2 16.5795 30.1292 16.5967 30.0578C16.6002 30.0436 16.6036 30.0293 16.6072 30.0147C16.6214 29.9557 16.6356 29.8967 16.6495 29.8377C16.7212 29.5357 16.7212 29.5357 16.7891 29.403C16.8078 29.3644 16.8195 29.3268 16.8307 29.2854C16.8543 29.2013 16.8902 29.1257 16.9279 29.0469C16.9626 28.9723 16.9915 28.8955 17.0213 28.8188C17.0744 28.6833 17.1358 28.5562 17.207 28.4294C17.2341 28.3808 17.2599 28.3315 17.2859 28.2823C17.3435 28.174 17.4021 28.0661 17.4609 27.9583C17.4693 27.9428 17.4778 27.9273 17.4865 27.9113C17.5098 27.8686 17.5332 27.826 17.5567 27.7833C17.5626 27.7726 17.5685 27.7618 17.5745 27.7506C17.6142 27.6791 17.6598 27.6142 17.7088 27.549C17.7252 27.5269 17.7416 27.5048 17.7579 27.4827C17.7661 27.4717 17.7743 27.4606 17.7828 27.4492C17.8188 27.4003 17.8539 27.3507 17.889 27.3011C17.9507 27.2144 18.0132 27.1283 18.0765 27.0427C18.0844 27.0319 18.0923 27.021 18.1005 27.0099C18.1504 26.9429 18.2041 26.8837 18.264 26.8255C18.293 26.7971 18.3199 26.7674 18.3463 26.7365C18.4437 26.6239 18.542 26.5137 18.6484 26.4094C18.7067 26.3518 18.7601 26.2935 18.8109 26.2292C18.9498 26.0554 19.1121 25.8992 19.2872 25.7623C19.3233 25.7349 19.3233 25.7349 19.3502 25.7044C19.3734 25.6833 19.3734 25.6833 19.4234 25.6833Z" fill="white"/>
  <path d="M16.4567 33.5333C16.5159 33.5799 16.5697 33.6305 16.6234 33.6833C16.6338 33.6923 16.6442 33.7014 16.6549 33.7107C16.8198 33.8581 16.9243 34.1011 16.9567 34.3166C16.9764 34.6886 16.9266 35.0281 16.6734 35.3166C16.4776 35.5191 16.2406 35.6483 15.9555 35.6539C15.9163 35.6545 15.8771 35.6549 15.838 35.6552C15.8186 35.6557 15.7993 35.6562 15.7794 35.6567C15.5002 35.6587 15.2671 35.5416 15.0699 35.3486C14.8213 35.0946 14.7495 34.8115 14.7519 34.4666C14.757 34.1545 14.854 33.8999 15.0756 33.6776C15.1479 33.6105 15.2235 33.5529 15.3067 33.5C15.3172 33.4932 15.3277 33.4864 15.3385 33.4794C15.6765 33.2867 16.1369 33.3303 16.4567 33.5333Z" fill="#FDF002"/>
  <path d="M29.802 33.6604C29.9989 33.8531 30.1374 34.1002 30.145 34.379C30.1453 34.421 30.1453 34.4631 30.1452 34.5052C30.1456 34.5366 30.1456 34.5366 30.1461 34.5686C30.1462 34.7564 30.1084 34.9162 30.0234 35.0833C30.0169 35.0963 30.0105 35.1093 30.0039 35.1226C29.8647 35.379 29.6282 35.5402 29.3567 35.6333C29.0378 35.6952 28.7015 35.6717 28.4273 35.4908C28.1714 35.3034 28.0135 35.0584 27.9491 34.7464C27.9436 34.7085 27.9414 34.6716 27.94 34.6333C27.9392 34.6122 27.9383 34.5911 27.9374 34.5693C27.929 34.2689 27.9959 33.9865 28.1994 33.7573C28.2239 33.7324 28.2485 33.7078 28.2734 33.6833C28.2823 33.673 28.2913 33.6626 28.3006 33.652C28.4521 33.4818 28.6793 33.3915 28.9015 33.3708C29.246 33.3533 29.5459 33.42 29.802 33.6604Z" fill="#FDF002"/>
  <path d="M32.2126 33.4307C32.2317 33.4306 32.2508 33.4304 32.2705 33.4302C32.2914 33.4302 32.3122 33.4301 32.3338 33.43C32.366 33.4299 32.366 33.4299 32.3989 33.4297C32.4447 33.4296 32.4905 33.4295 32.5363 33.4294C32.5828 33.4293 32.6292 33.4291 32.6757 33.4287C33.5205 33.4219 33.5205 33.4219 33.8182 33.7011C34.0543 33.9537 34.1324 34.2534 34.1267 34.5891C34.1165 34.8891 33.996 35.1455 33.787 35.358C33.5676 35.5544 33.3056 35.6227 33.0169 35.6206C32.9993 35.6206 32.9816 35.6206 32.9634 35.6206C32.9262 35.6205 32.889 35.6204 32.8518 35.6202C32.7957 35.6199 32.7396 35.6198 32.6834 35.6198C32.1422 35.619 32.1422 35.619 32.1067 35.5834C32.1064 35.5334 32.1072 35.4838 32.1087 35.4339C32.1095 35.4016 32.1104 35.3694 32.1112 35.3372C32.1116 35.3201 32.1121 35.303 32.1126 35.2854C32.1202 35.0007 32.1253 34.7161 32.1254 34.4313C32.1255 34.4177 32.1255 34.4041 32.1256 34.39C32.1259 34.2492 32.1228 34.1104 32.1105 33.97C32.1034 33.8704 32.1043 33.7707 32.1046 33.6709C32.1046 33.6498 32.1045 33.6286 32.1044 33.6068C32.1044 33.5868 32.1045 33.5668 32.1045 33.5462C32.1045 33.5281 32.1045 33.51 32.1045 33.4914C32.1085 33.416 32.1459 33.4312 32.2126 33.4307Z" fill="#FDF002"/>
  <path d="M17.6088 33.4095C17.6314 33.4083 17.6314 33.4083 17.6545 33.4072C17.6962 33.4064 17.7327 33.4076 17.7734 33.4168C17.8097 33.453 17.8207 33.4712 17.84 33.5168C17.8467 33.531 17.8533 33.5453 17.8602 33.56C17.8838 33.6116 17.9063 33.6636 17.9286 33.7157C17.945 33.7535 17.9614 33.7912 17.9778 33.8289C17.9896 33.8561 17.9896 33.8561 18.0017 33.8838C18.0594 34.0157 18.1217 34.1455 18.1842 34.2752C18.1919 34.2912 18.1995 34.3072 18.2074 34.3236C18.2227 34.3554 18.238 34.3871 18.2534 34.4188C18.2603 34.4332 18.2672 34.4476 18.2743 34.4624C18.2806 34.4753 18.2868 34.4882 18.2933 34.5015C18.3067 34.5334 18.3067 34.5334 18.3067 34.5668C18.3587 34.5553 18.3587 34.5553 18.3788 34.5143C18.3863 34.4985 18.3937 34.4827 18.4014 34.4664C18.4141 34.4396 18.4141 34.4396 18.4271 34.4123C18.4362 34.3928 18.4453 34.3733 18.4546 34.3532C18.4642 34.333 18.4737 34.3128 18.4833 34.2926C18.5136 34.2286 18.5435 34.1643 18.5734 34.1001C18.5783 34.0895 18.5832 34.0789 18.5883 34.068C18.6307 33.9768 18.6732 33.8856 18.7152 33.7941C18.8739 33.4495 18.8739 33.4495 18.9067 33.4168C18.9499 33.4153 18.9927 33.4148 19.0359 33.4151C19.0489 33.4152 19.0618 33.4152 19.0751 33.4152C19.1165 33.4153 19.158 33.4155 19.1994 33.4157C19.2274 33.4158 19.2555 33.4159 19.2835 33.4159C19.3523 33.4161 19.4212 33.4164 19.49 33.4168C19.4904 33.699 19.4907 33.9812 19.4909 34.2634C19.491 34.3944 19.4911 34.5254 19.4913 34.6565C19.4915 34.7706 19.4916 34.8848 19.4916 34.999C19.4916 35.0594 19.4917 35.1199 19.4918 35.1804C19.4919 35.2478 19.4919 35.3152 19.4919 35.3826C19.492 35.4028 19.492 35.423 19.4921 35.4439C19.4921 35.4621 19.4921 35.4804 19.492 35.4992C19.4921 35.5231 19.4921 35.5231 19.4921 35.5475C19.49 35.5834 19.49 35.5834 19.4734 35.6001C19.4277 35.6016 19.3825 35.602 19.3368 35.6017C19.3247 35.6017 19.3126 35.6017 19.3002 35.6017C19.2548 35.6016 19.2094 35.6014 19.164 35.6011C19.0626 35.6008 18.9612 35.6004 18.8567 35.6001C18.8567 35.2646 18.8567 34.9291 18.8567 34.5834C18.7458 34.8456 18.6358 35.1072 18.5322 35.3722C18.5175 35.4096 18.5027 35.447 18.4879 35.4845C18.4835 35.4957 18.4792 35.5069 18.4747 35.5185C18.4563 35.5649 18.4424 35.5977 18.4067 35.6334C18.3736 35.6414 18.3736 35.6414 18.3348 35.6438C18.3158 35.6457 18.3158 35.6457 18.2965 35.6476C18.2186 35.6198 18.1861 35.5266 18.152 35.4555C18.1293 35.4046 18.1073 35.3536 18.0856 35.3023C18.0776 35.2837 18.0696 35.2651 18.0614 35.2459C18.0361 35.187 18.011 35.1279 17.9859 35.0688C17.9605 35.0094 17.935 34.9501 17.9096 34.8907C17.8938 34.8538 17.8781 34.8169 17.8624 34.78C17.8517 34.7552 17.8517 34.7552 17.8409 34.7298C17.8347 34.7152 17.8285 34.7005 17.8221 34.6855C17.812 34.6623 17.8013 34.6394 17.79 34.6168C17.7901 34.6288 17.7901 34.6409 17.7901 34.6533C17.7905 34.7669 17.7907 34.8805 17.7909 34.994C17.791 35.0524 17.7911 35.1108 17.7913 35.1692C17.7915 35.2362 17.7916 35.3033 17.7917 35.3703C17.7917 35.3914 17.7918 35.4125 17.7919 35.4342C17.7919 35.4535 17.7919 35.4729 17.7919 35.4928C17.792 35.5099 17.792 35.5271 17.792 35.5447C17.79 35.5834 17.79 35.5834 17.7734 35.6001C17.5809 35.6001 17.3884 35.6001 17.19 35.6001C17.19 34.8851 17.19 34.1701 17.19 33.4334C17.4894 33.412 17.4894 33.412 17.6088 33.4095Z" fill="#FDF002"/>
  <path d="M35.8567 33.3999C35.9036 33.4392 35.936 33.4869 35.9701 33.5374C35.9923 33.5699 36.0152 33.6016 36.0383 33.6333C36.0753 33.684 36.112 33.7349 36.1486 33.7859C36.2345 33.9055 36.3223 34.0239 36.4099 34.1424C36.4414 34.1851 36.4729 34.2279 36.5043 34.2707C36.5148 34.285 36.5253 34.2993 36.5362 34.3141C36.5563 34.3414 36.5763 34.3688 36.5964 34.3961C36.6716 34.5131 36.6716 34.5131 36.7734 34.5999C36.7729 34.5864 36.7724 34.5729 36.7718 34.559C36.7584 34.1891 36.7546 33.82 36.7567 33.4499C36.9067 33.4386 37.0552 33.4309 37.2057 33.4322C37.2356 33.4324 37.2655 33.4326 37.2954 33.4328C37.3101 33.4329 37.3248 33.433 37.34 33.4331C37.3565 33.4332 37.3565 33.4332 37.3734 33.4333C37.3745 33.876 37.372 34.3187 37.3672 34.7615C37.3662 34.8481 37.3654 34.9348 37.3646 35.0215C37.3639 35.0889 37.3632 35.1564 37.3625 35.2239C37.3621 35.2559 37.3618 35.2879 37.3615 35.32C37.3612 35.3641 37.3607 35.4081 37.3601 35.4522C37.36 35.4653 37.3599 35.4785 37.3598 35.492C37.3586 35.5814 37.3586 35.5814 37.34 35.5999C37.2665 35.6072 37.193 35.6095 37.1192 35.6113C37.0944 35.612 37.0697 35.6132 37.045 35.6147C36.8413 35.6269 36.8413 35.6269 36.76 35.5635C36.7211 35.5165 36.6887 35.4685 36.6567 35.4166C36.6378 35.3909 36.6186 35.3653 36.5992 35.34C36.5812 35.3152 36.5632 35.2904 36.5452 35.2656C36.4563 35.1436 36.365 35.0238 36.272 34.905C36.1932 34.8043 36.1163 34.7025 36.04 34.5999C36.007 34.5559 35.974 34.5119 35.94 34.4666C35.9345 34.8406 35.929 35.2146 35.9234 35.5999C35.7754 35.6004 35.7754 35.6004 35.6244 35.601C35.5932 35.6011 35.5621 35.6013 35.5299 35.6014C35.5054 35.6015 35.4808 35.6015 35.4562 35.6016C35.4369 35.6017 35.4369 35.6017 35.4172 35.6018C35.3859 35.6018 35.3546 35.601 35.3234 35.5999C35.2957 35.5722 35.3045 35.5392 35.3045 35.5011C35.3044 35.4833 35.3043 35.4656 35.3043 35.4472C35.3043 35.4276 35.3043 35.4079 35.3043 35.3876C35.3042 35.367 35.3042 35.3464 35.3041 35.3252C35.304 35.2685 35.3039 35.2119 35.3039 35.1553C35.3039 35.108 35.3038 35.0608 35.3038 35.0136C35.3036 34.9022 35.3036 34.7909 35.3036 34.6795C35.3036 34.5645 35.3034 34.4494 35.3032 34.3344C35.303 34.2358 35.3029 34.1371 35.3029 34.0385C35.3029 33.9795 35.3028 33.9206 35.3027 33.8616C35.3025 33.7959 35.3026 33.7302 35.3027 33.6644C35.3026 33.6448 35.3025 33.6251 35.3024 33.6049C35.3025 33.5781 35.3025 33.5781 35.3026 33.5509C35.3026 33.5353 35.3026 33.5197 35.3026 33.5037C35.3067 33.4666 35.3067 33.4666 35.34 33.4333C35.3721 33.4282 35.3721 33.4282 35.4108 33.427C35.4317 33.4261 35.4317 33.4261 35.4531 33.4252C35.4677 33.4248 35.4823 33.4243 35.4973 33.4239C35.5261 33.4229 35.5549 33.4218 35.5837 33.4207C35.6029 33.4201 35.6029 33.4201 35.6225 33.4195C35.856 33.3997 35.856 33.3997 35.8567 33.3999Z" fill="#FCEF03"/>
  <path d="M23.04 33.4001C23.1246 33.4789 23.1913 33.5779 23.2578 33.672C23.2767 33.6985 23.2957 33.725 23.3147 33.7515C23.3243 33.7651 23.334 33.7786 23.344 33.7925C23.3918 33.859 23.4404 33.9249 23.489 33.9907C23.4986 34.0037 23.5081 34.0166 23.518 34.0299C23.5375 34.0564 23.557 34.0828 23.5765 34.1092C23.6081 34.1519 23.6395 34.1947 23.671 34.2375C23.6815 34.2518 23.692 34.2661 23.7028 34.2809C23.7229 34.3082 23.743 34.3356 23.7631 34.3629C23.8012 34.4147 23.8392 34.4657 23.88 34.5153C23.9067 34.5501 23.9067 34.5501 23.9067 34.5834C23.9232 34.5834 23.9397 34.5834 23.9567 34.5834C23.9587 34.351 23.9561 34.1195 23.946 33.8873C23.9398 33.7415 23.9382 33.596 23.94 33.4501C24.0677 33.4294 24.1943 33.4316 24.3234 33.4324C24.3461 33.4325 24.3687 33.4325 24.3914 33.4326C24.4465 33.4328 24.5016 33.4331 24.5567 33.4334C24.5591 33.9327 24.5559 34.4318 24.55 34.931C24.5494 34.9763 24.5489 35.0216 24.5484 35.0669C24.5476 35.1388 24.5468 35.2107 24.5458 35.2826C24.5455 35.3095 24.5452 35.3363 24.5449 35.3632C24.5445 35.4001 24.544 35.437 24.5435 35.4739C24.5432 35.4947 24.543 35.5156 24.5427 35.537C24.54 35.5834 24.54 35.5834 24.5234 35.6001C24.4519 35.6066 24.3804 35.6082 24.3087 35.6096C24.2847 35.6102 24.2606 35.6111 24.2366 35.6123C24.0386 35.6222 24.0386 35.6222 23.9636 35.5702C23.9292 35.532 23.9012 35.4933 23.8734 35.4501C23.8577 35.4298 23.8419 35.4095 23.826 35.3894C23.8112 35.3694 23.7964 35.3494 23.7817 35.3293C23.7646 35.3062 23.7475 35.2831 23.7303 35.26C23.7213 35.2477 23.7122 35.2355 23.7028 35.2229C23.6481 35.1496 23.5925 35.077 23.5369 35.0043C23.455 34.897 23.3734 34.7896 23.2932 34.6811C23.2586 34.6359 23.2233 34.5915 23.1878 34.5471C23.1697 34.5246 23.1697 34.5246 23.1513 34.5015C23.1421 34.4901 23.1329 34.4786 23.1234 34.4668C23.1234 34.4807 23.1235 34.4947 23.1235 34.509C23.1238 34.6403 23.1241 34.7715 23.1242 34.9027C23.1243 34.9701 23.1245 35.0376 23.1246 35.1051C23.1248 35.1701 23.1249 35.2352 23.125 35.3002C23.125 35.3251 23.1251 35.35 23.1251 35.3749C23.1253 35.4096 23.1253 35.4443 23.1253 35.479C23.1253 35.4988 23.1253 35.5186 23.1254 35.539C23.1234 35.5834 23.1234 35.5834 23.1067 35.6001C23.0625 35.6018 23.0187 35.6024 22.9744 35.6023C22.9545 35.6023 22.9545 35.6023 22.9343 35.6024C22.9062 35.6024 22.8781 35.6023 22.85 35.6023C22.8069 35.6022 22.7638 35.6023 22.7206 35.6024C22.6934 35.6024 22.6662 35.6023 22.639 35.6023C22.626 35.6023 22.613 35.6024 22.5997 35.6024C22.5086 35.602 22.5086 35.602 22.49 35.5834C22.4898 35.5414 22.4906 35.4999 22.4921 35.4579C22.4929 35.4292 22.4937 35.4006 22.4945 35.3719C22.495 35.3562 22.4954 35.3405 22.4959 35.3244C22.5079 34.9083 22.5082 34.4924 22.5078 34.0761C22.5077 34.0607 22.5077 34.0452 22.5077 34.0292C22.5075 33.8362 22.5072 33.6431 22.5067 33.4501C22.5169 33.4492 22.527 33.4483 22.5375 33.4473C22.5839 33.4431 22.6302 33.4388 22.6765 33.4345C22.6925 33.433 22.7085 33.4316 22.725 33.4301C22.7483 33.4279 22.7483 33.4279 22.772 33.4257C22.7862 33.4244 22.8005 33.4231 22.8151 33.4217C23.0228 33.397 23.0228 33.397 23.04 33.4001Z" fill="#FDF002"/>
  <path d="M13.4812 33.4117C13.517 33.4115 13.5529 33.4112 13.5887 33.4107C13.9094 33.4063 14.1958 33.4247 14.4436 33.6518C14.5721 33.7876 14.5961 33.93 14.5963 34.1114C14.5967 34.1285 14.5971 34.1456 14.5975 34.1632C14.5981 34.3242 14.5658 34.471 14.4505 34.5895C14.4375 34.603 14.4245 34.6165 14.4111 34.6304C14.3668 34.673 14.3221 34.7125 14.2734 34.75C14.2962 34.8087 14.3215 34.8654 14.349 34.922C14.3573 34.939 14.3655 34.956 14.374 34.9736C14.3827 34.9916 14.3915 35.0095 14.4005 35.0281C14.4636 35.1591 14.5263 35.2902 14.5859 35.4229C14.5915 35.4351 14.597 35.4474 14.6028 35.46C14.6248 35.5095 14.64 35.5452 14.64 35.6C14.5887 35.6256 14.5346 35.6197 14.4782 35.62C14.4654 35.6201 14.4527 35.6202 14.4396 35.6203C14.4126 35.6204 14.3856 35.6206 14.3586 35.6206C14.3174 35.6208 14.2762 35.6213 14.235 35.6218C14.2087 35.6219 14.1825 35.622 14.1563 35.6221C14.144 35.6223 14.1317 35.6225 14.119 35.6227C14.0668 35.6225 14.0294 35.6199 13.9832 35.5947C13.9424 35.5514 13.9291 35.4993 13.9119 35.4437C13.8672 35.3077 13.8128 35.1772 13.755 35.0463C13.7487 35.0321 13.7425 35.0178 13.736 35.0031C13.7304 34.9905 13.7247 34.9778 13.7189 34.9647C13.7067 34.9333 13.7067 34.9333 13.7067 34.9C13.6465 34.881 13.5903 34.8816 13.5275 34.8822C13.4983 34.8825 13.4983 34.8825 13.4684 34.8827C13.4536 34.8829 13.4387 34.8831 13.4234 34.8833C13.4239 34.8961 13.4244 34.9089 13.4249 34.9222C13.4466 35.4811 13.4466 35.4811 13.44 35.6C13.4069 35.6331 13.3413 35.6193 13.2959 35.6194C13.2831 35.6195 13.2703 35.6195 13.2571 35.6196C13.2299 35.6197 13.2028 35.6197 13.1756 35.6197C13.1341 35.6197 13.0925 35.62 13.051 35.6204C13.0246 35.6204 12.9983 35.6204 12.9719 35.6205C12.9595 35.6206 12.947 35.6207 12.9342 35.6208C12.8715 35.6205 12.8436 35.619 12.79 35.5833C12.786 35.5322 12.785 35.4846 12.7864 35.4335C12.7866 35.4186 12.7868 35.4036 12.787 35.3881C12.7878 35.3421 12.7888 35.296 12.79 35.25C12.7905 35.2303 12.7905 35.2303 12.7909 35.2103C12.7927 35.1354 12.7948 35.0605 12.7972 34.9856C12.8055 34.7109 12.8086 34.4362 12.8088 34.1614C12.8088 34.1448 12.8089 34.1281 12.8089 34.111C12.8093 33.9278 12.8075 33.7456 12.7929 33.5629C12.7907 33.5309 12.7902 33.4987 12.79 33.4666C12.8375 33.4192 12.8859 33.4257 12.9497 33.4232C12.9629 33.4226 12.9761 33.422 12.9897 33.4213C13.1534 33.4143 13.3173 33.4123 13.4812 33.4117Z" fill="#FCEF02"/>
  <path d="M25.64 33.4334C25.8545 33.4334 26.069 33.4334 26.29 33.4334C26.29 33.7179 26.29 33.7179 26.2817 33.8448C26.274 33.9637 26.2734 34.0804 26.2734 34.2C26.5374 34.2 26.8014 34.2 27.0734 34.2C27.0727 33.9539 27.0727 33.9539 27.0719 33.7079C27.0718 33.6771 27.0718 33.6464 27.0717 33.6157C27.0717 33.5996 27.0716 33.5835 27.0715 33.5669C27.0715 33.5441 27.0715 33.5441 27.0715 33.5208C27.0714 33.5075 27.0714 33.4942 27.0714 33.4805C27.0734 33.45 27.0734 33.45 27.09 33.4334C27.1357 33.4319 27.1809 33.4314 27.2266 33.4317C27.2402 33.4317 27.2539 33.4318 27.268 33.4318C27.3118 33.4319 27.3556 33.4321 27.3994 33.4323C27.4291 33.4324 27.4587 33.4325 27.4883 33.4325C27.5611 33.4327 27.6339 33.433 27.7067 33.4334C27.7067 33.4505 27.7066 33.4676 27.7066 33.4852C27.7063 33.6498 27.706 33.8144 27.7058 33.979C27.7058 34.0636 27.7056 34.1481 27.7055 34.2326C27.7044 34.6832 27.7094 35.133 27.7234 35.5834C27.6587 35.6191 27.6037 35.6213 27.5311 35.6205C27.513 35.6205 27.513 35.6205 27.4946 35.6205C27.4692 35.6205 27.4439 35.6203 27.4185 35.6201C27.3796 35.6198 27.3408 35.6198 27.3019 35.6198C27.2772 35.6197 27.2526 35.6196 27.2279 35.6195C27.2163 35.6195 27.2046 35.6194 27.1926 35.6194C27.1106 35.6186 27.1106 35.6186 27.0734 35.6C27.0679 35.325 27.0624 35.05 27.0567 34.7667C26.7982 34.7667 26.5397 34.7667 26.2734 34.7667C26.2761 34.8272 26.2789 34.8877 26.2817 34.95C26.2879 35.1024 26.2926 35.2548 26.2942 35.4073C26.2947 35.433 26.2947 35.433 26.2953 35.4593C26.2954 35.4751 26.2954 35.4909 26.2955 35.5072C26.2957 35.5281 26.2957 35.5281 26.296 35.5495C26.294 35.5606 26.2921 35.5718 26.29 35.5834C26.2299 35.6234 26.186 35.6215 26.1166 35.6211C26.0986 35.6212 26.0986 35.6212 26.0802 35.6212C26.0548 35.6212 26.0294 35.6212 26.004 35.621C25.9652 35.6209 25.9264 35.621 25.8875 35.6212C25.8628 35.6212 25.8382 35.6212 25.8135 35.6211C25.8019 35.6212 25.7902 35.6212 25.7783 35.6213C25.7173 35.6207 25.6922 35.6181 25.64 35.5834C25.636 35.5406 25.635 35.5021 25.6364 35.4595C25.6366 35.4469 25.6368 35.4343 25.637 35.4214C25.6378 35.3809 25.6389 35.3405 25.64 35.3C25.6406 35.2739 25.6412 35.2478 25.6418 35.2217C25.6437 35.1419 25.646 35.0621 25.6484 34.9823C25.6567 34.7053 25.6588 34.4294 25.6496 34.1524C25.6417 33.9126 25.6384 33.6733 25.64 33.4334Z" fill="#FCEF03"/>
  <path d="M10.8768 33.4307C10.8982 33.4305 10.9196 33.4304 10.9416 33.4302C10.965 33.4301 10.9884 33.43 11.0118 33.43C11.0237 33.4299 11.0355 33.4299 11.0477 33.4298C11.1105 33.4296 11.1733 33.4294 11.2361 33.4294C11.3005 33.4293 11.3649 33.4289 11.4293 33.4284C11.4792 33.4281 11.529 33.428 11.5789 33.428C11.6026 33.4279 11.6263 33.4278 11.65 33.4276C11.9156 33.4253 12.161 33.4733 12.3619 33.6584C12.5185 33.8244 12.5764 34.0109 12.5765 34.2344C12.5767 34.2527 12.5769 34.2709 12.5771 34.2897C12.5775 34.5328 12.5233 34.7335 12.3525 34.9157C12.1449 35.1078 11.9238 35.1218 11.6557 35.1188C11.6298 35.1186 11.604 35.1185 11.5782 35.1183C11.5155 35.118 11.4528 35.1173 11.39 35.1167C11.39 35.2817 11.39 35.4467 11.39 35.6167C11.3122 35.6172 11.3122 35.6172 11.2327 35.6177C11.217 35.6179 11.2014 35.618 11.1852 35.6182C11.0871 35.6185 10.9897 35.6143 10.8919 35.6083C10.8788 35.6075 10.8658 35.6067 10.8523 35.6059C10.8204 35.6039 10.7886 35.602 10.7567 35.6C10.7565 35.5803 10.7564 35.5606 10.7562 35.5402C10.7545 35.3534 10.7528 35.1666 10.751 34.9798C10.7501 34.8837 10.7492 34.7877 10.7484 34.6917C10.7476 34.5989 10.7467 34.506 10.7458 34.4132C10.7455 34.3779 10.7452 34.3427 10.7449 34.3074C10.7435 34.1366 10.7416 33.9668 10.727 33.7965C10.7215 33.7261 10.7215 33.656 10.7223 33.5854C10.7224 33.5722 10.7225 33.5589 10.7226 33.5453C10.7227 33.5135 10.723 33.4818 10.7234 33.45C10.7782 33.4318 10.8191 33.431 10.8768 33.4307Z" fill="#FDF001"/>
  <path d="M39.3424 33.5899C39.4997 33.7291 39.4997 33.7291 39.514 33.8066C39.5039 33.8668 39.4766 33.8991 39.439 33.947C39.4322 33.9557 39.4254 33.9644 39.4184 33.9733C39.3981 33.9991 39.3774 34.0246 39.3567 34.0501C39.3456 34.064 39.3345 34.0779 39.3231 34.0922C39.2525 34.1772 39.2525 34.1772 39.208 34.1995C39.1734 34.2001 39.1734 34.2001 39.138 34.1719C39.1253 34.1585 39.1125 34.1451 39.0994 34.1314C38.9813 34.0202 38.8493 33.9645 38.6869 33.9564C38.5533 33.9631 38.4507 34.0153 38.3588 34.1116C38.2364 34.2637 38.2088 34.4439 38.2234 34.6334C38.2513 34.7794 38.312 34.8851 38.4234 34.9834C38.55 35.0661 38.7101 35.0605 38.8567 35.0501C38.9025 35.0397 38.9455 35.0269 38.9896 35.011C39.0234 35.0001 39.0234 35.0001 39.0734 35.0001C39.0718 34.9894 39.0703 34.9786 39.0688 34.9676C39.0618 34.918 39.0551 34.8684 39.0484 34.8189C39.046 34.802 39.0436 34.7851 39.0411 34.7677C39.0269 34.6622 39.0147 34.5566 39.0234 34.4501C39.04 34.4334 39.04 34.4334 39.1001 34.4316C39.1268 34.4316 39.1535 34.4316 39.1802 34.4318C39.1942 34.4318 39.2083 34.4319 39.2227 34.4319C39.2677 34.432 39.3127 34.4322 39.3577 34.4324C39.3882 34.4325 39.4186 34.4326 39.449 34.4326C39.5238 34.4328 39.5986 34.4331 39.6734 34.4334C39.6758 34.5517 39.6781 34.6699 39.6805 34.7882C39.6813 34.8283 39.6821 34.8684 39.6829 34.9085C39.6907 35.2926 39.6907 35.2926 39.6916 35.4689C39.6917 35.4806 39.6918 35.4922 39.6919 35.5042C39.6919 35.5306 39.6911 35.557 39.69 35.5834C39.6845 35.5889 39.679 35.5944 39.6734 35.6001C39.6024 35.5953 39.5373 35.5872 39.4685 35.5688C39.344 35.5358 39.2642 35.5278 39.1451 35.5805C38.9958 35.6337 38.8388 35.6391 38.6817 35.6387C38.6644 35.6389 38.6471 35.6392 38.6293 35.6395C38.3413 35.6396 38.1041 35.5314 37.901 35.3304C37.655 35.0696 37.5975 34.7798 37.6036 34.4336C37.6125 34.1333 37.7204 33.8601 37.94 33.6501C38.3314 33.3128 38.9248 33.2725 39.3424 33.5899Z" fill="#FDF002"/>
  <path d="M20.9864 33.4158C21.041 33.4151 21.0957 33.4146 21.1503 33.4141C21.166 33.4139 21.1817 33.4136 21.1979 33.4133C21.2342 33.4132 21.2705 33.4147 21.3067 33.4166C21.3481 33.4581 21.346 33.4756 21.3506 33.533C21.352 33.5496 21.3534 33.5663 21.3548 33.5835C21.3561 33.601 21.3574 33.6184 21.3588 33.6364C21.3602 33.6536 21.3617 33.6707 21.3632 33.6884C21.3702 33.7759 21.3751 33.8622 21.3734 33.95C21.2295 33.9518 21.0868 33.9498 20.9432 33.9416C20.8276 33.9354 20.7121 33.9307 20.5963 33.9291C20.5828 33.9288 20.5692 33.9284 20.5553 33.9281C20.5136 33.9272 20.5136 33.9272 20.4567 33.9333C20.4195 33.9892 20.4189 34.0096 20.4192 34.075C20.4191 34.091 20.419 34.1069 20.4189 34.1234C20.4204 34.1706 20.4204 34.1706 20.4567 34.2166C20.4907 34.2237 20.4907 34.2237 20.5303 34.2218C20.5456 34.2217 20.5608 34.2216 20.5765 34.2215C20.593 34.2211 20.6095 34.2207 20.6265 34.2204C20.6434 34.2202 20.6603 34.2201 20.6777 34.2199C20.7318 34.2194 20.7859 34.2186 20.84 34.2177C20.8942 34.2169 20.9483 34.2162 21.0024 34.2157C21.0361 34.2153 21.0698 34.2148 21.1036 34.2142C21.1188 34.214 21.134 34.2138 21.1497 34.2137C21.1699 34.2133 21.1699 34.2133 21.1905 34.213C21.2234 34.2166 21.2234 34.2166 21.2567 34.25C21.2809 34.3403 21.2764 34.4322 21.2765 34.525C21.2767 34.5422 21.2769 34.5594 21.2771 34.5771C21.2772 34.5938 21.2772 34.6104 21.2772 34.6276C21.2773 34.6427 21.2774 34.6578 21.2774 34.6733C21.273 34.7208 21.2597 34.7568 21.24 34.8C21.2301 34.7999 21.2201 34.7999 21.2098 34.7999C21.1062 34.7995 21.0027 34.7992 20.8992 34.7991C20.8605 34.799 20.8218 34.7989 20.7831 34.7987C20.7276 34.7985 20.6721 34.7984 20.6167 34.7984C20.5993 34.7983 20.5818 34.7982 20.5639 34.7981C20.5399 34.7981 20.5399 34.7981 20.5154 34.7981C20.5012 34.7981 20.487 34.798 20.4724 34.798C20.4399 34.7964 20.4399 34.7964 20.4234 34.8166C20.4217 34.847 20.4212 34.8774 20.4212 34.9078C20.4211 34.9266 20.4211 34.9454 20.4211 34.9648C20.4212 34.9946 20.4212 34.9946 20.4213 35.025C20.4212 35.0443 20.4212 35.0637 20.4211 35.0836C20.4212 35.1793 20.424 35.2727 20.4363 35.3677C20.4418 35.4146 20.4422 35.4611 20.4421 35.5083C20.4422 35.5338 20.4422 35.5338 20.4423 35.5599C20.44 35.6 20.44 35.6 20.4234 35.6166C20.3807 35.6185 20.3386 35.6194 20.2959 35.6194C20.2831 35.6195 20.2703 35.6196 20.2571 35.6196C20.2299 35.6197 20.2028 35.6197 20.1756 35.6197C20.1341 35.6198 20.0925 35.6201 20.051 35.6204C20.0246 35.6204 19.9983 35.6205 19.9719 35.6205C19.9595 35.6206 19.947 35.6207 19.9342 35.6209C19.8715 35.6206 19.8436 35.619 19.79 35.5833C19.7854 35.5415 19.7841 35.5039 19.7849 35.4621C19.7849 35.4495 19.785 35.437 19.785 35.4241C19.7852 35.3967 19.7854 35.3693 19.7858 35.3419C19.7863 35.2979 19.7866 35.254 19.7868 35.21C19.7872 35.1157 19.7881 35.0214 19.789 34.9271C19.7901 34.8047 19.791 34.6824 19.7915 34.56C19.7916 34.5449 19.7917 34.5299 19.7918 34.5143C19.7928 34.2489 19.7816 33.9852 19.764 33.7203C19.7582 33.6299 19.7535 33.5406 19.7567 33.45C19.787 33.4197 19.834 33.4304 19.8748 33.4299C19.8965 33.4296 19.9183 33.4292 19.9408 33.4289C19.9649 33.4286 19.989 33.4283 20.0131 33.428C20.0379 33.4277 20.0628 33.4273 20.0876 33.427C20.14 33.4263 20.1925 33.4256 20.2449 33.4249C20.3109 33.4241 20.3769 33.4232 20.443 33.4223C20.5805 33.4204 20.718 33.4187 20.8556 33.4174C20.8992 33.4169 20.9428 33.4164 20.9864 33.4158Z" fill="#FCEF03"/>
  <path d="M30.39 33.4333C30.6045 33.4333 30.819 33.4333 31.04 33.4333C31.04 33.6568 31.04 33.6568 31.0327 33.7627C31.0312 33.7867 31.0297 33.8107 31.0282 33.8347C31.027 33.8534 31.027 33.8534 31.0258 33.8725C31.0084 34.1529 31.0034 34.4327 31.0036 34.7136C31.0036 34.7411 31.0036 34.7411 31.0035 34.7692C31.0035 34.8212 31.0037 34.8733 31.0039 34.9253C31.0039 34.949 31.0039 34.949 31.004 34.9731C31.0041 34.9875 31.0042 35.0018 31.0043 35.0165C31.0043 35.0291 31.0044 35.0417 31.0045 35.0546C31.0036 35.0839 31.0036 35.0839 31.0234 35.1C31.1575 35.1074 31.2925 35.0987 31.4265 35.0917C31.5463 35.0854 31.6659 35.0815 31.7859 35.0813C31.7995 35.0812 31.8131 35.0811 31.8271 35.081C31.9213 35.0813 31.9213 35.0813 31.94 35.1C31.9504 35.2819 31.9432 35.4632 31.8734 35.6333C31.6871 35.6316 31.5008 35.6297 31.3144 35.6277C31.2279 35.6268 31.1414 35.6259 31.0549 35.6251C30.9715 35.6243 30.8881 35.6234 30.8047 35.6225C30.7728 35.6221 30.7409 35.6218 30.709 35.6215C30.6645 35.6211 30.6199 35.6206 30.5754 35.6201C30.5621 35.62 30.5488 35.6199 30.5351 35.6198C30.4438 35.6186 30.4438 35.6186 30.4067 35.6C30.4045 35.4209 30.4023 35.2417 30.4002 35.0626C30.3992 34.9793 30.3982 34.8961 30.3972 34.8128C30.3914 34.3529 30.3892 33.8932 30.39 33.4333Z" fill="#FDF002"/>
  <path d="M21.5567 33.4333C21.7767 33.4333 21.9967 33.4333 22.2234 33.4333C22.2237 33.4897 22.2241 33.5461 22.2244 33.6042C22.2246 33.6212 22.2247 33.6381 22.2249 33.6556C22.2251 33.7466 22.2226 33.837 22.2174 33.9278C22.2066 34.1174 22.2045 34.3063 22.2051 34.4961C22.2051 34.5278 22.2051 34.5594 22.2052 34.5911C22.2052 34.6732 22.2054 34.7553 22.2056 34.8373C22.2057 34.9216 22.2058 35.0059 22.2059 35.0901C22.2061 35.2545 22.2064 35.4189 22.2067 35.5833C22.1296 35.6106 22.0678 35.621 21.9857 35.6211C21.9689 35.6212 21.9689 35.6212 21.9517 35.6212C21.9282 35.6212 21.9047 35.6212 21.8812 35.621C21.8452 35.6208 21.8092 35.621 21.7732 35.6212C21.7503 35.6212 21.7274 35.6212 21.7044 35.6211C21.6837 35.6211 21.6629 35.621 21.6416 35.621C21.59 35.6167 21.59 35.6167 21.54 35.5833C21.5358 35.5406 21.5346 35.5021 21.5359 35.4594C21.536 35.4484 21.5361 35.4373 21.5361 35.426C21.5371 35.3607 21.5418 35.2963 21.5485 35.2314C21.557 35.1395 21.559 35.0487 21.5586 34.9565C21.5586 34.9316 21.5586 34.9316 21.5586 34.9062C21.5586 34.852 21.5585 34.7978 21.5583 34.7436C21.5583 34.7057 21.5583 34.6679 21.5583 34.63C21.5582 34.5309 21.558 34.4318 21.5579 34.3327C21.5577 34.2314 21.5576 34.13 21.5575 34.0287C21.5573 33.8302 21.5571 33.6318 21.5567 33.4333Z" fill="#FBEE04"/>
  <path d="M34.3734 33.4333C34.5879 33.4333 34.8024 33.4333 35.0234 33.4333C35.0237 33.5231 35.0241 33.6128 35.0244 33.7052C35.0246 33.7331 35.0247 33.7611 35.0249 33.7898C35.0249 33.8126 35.025 33.8354 35.025 33.8582C35.0251 33.8695 35.0252 33.8807 35.0253 33.8924C35.0253 33.9556 35.0219 34.0172 35.015 34.0801C35.0012 34.2234 35.0047 34.3673 35.0051 34.5111C35.0051 34.5426 35.0051 34.5741 35.0052 34.6056C35.0052 34.688 35.0054 34.7703 35.0056 34.8527C35.0057 34.9369 35.0058 35.0211 35.0059 35.1054C35.0061 35.2703 35.0064 35.4351 35.0067 35.6C34.9179 35.6296 34.8217 35.6198 34.7287 35.6198C34.6913 35.6198 34.6538 35.6201 34.6164 35.6204C34.5925 35.6205 34.5687 35.6205 34.5448 35.6205C34.5231 35.6206 34.5014 35.6207 34.4791 35.6207C34.4276 35.617 34.3996 35.6107 34.3567 35.5833C34.3562 35.5205 34.3559 35.4577 34.3557 35.3948C34.3555 35.3776 34.3554 35.3604 34.3553 35.3426C34.355 35.2483 34.357 35.1548 34.3627 35.0607C34.3739 34.8768 34.3756 34.6934 34.375 34.5092C34.375 34.4779 34.375 34.4466 34.3749 34.4153C34.3749 34.334 34.3747 34.2528 34.3745 34.1716C34.3743 34.0735 34.3742 33.9754 34.3742 33.8773C34.374 33.7293 34.3737 33.5813 34.3734 33.4333Z" fill="#FDF002"/>
  <path d="M16.1067 34.0166C16.2268 34.0973 16.3109 34.2127 16.3567 34.3499C16.3775 34.5391 16.37 34.7072 16.2567 34.8666C16.214 34.9166 16.214 34.9166 16.1734 34.9499C16.16 34.9616 16.1466 34.9733 16.1327 34.9854C16.0432 35.0508 15.9693 35.0751 15.8588 35.0729C15.847 35.0727 15.8351 35.0725 15.8229 35.0723C15.6817 35.068 15.5921 35.0329 15.4883 34.9372C15.3649 34.7915 15.3315 34.6347 15.34 34.4499C15.3548 34.2994 15.4268 34.1715 15.5369 34.0687C15.7128 33.9278 15.9073 33.9048 16.1067 34.0166Z" fill="#1007B0"/>
  <path d="M29.2629 33.9917C29.396 34.0664 29.487 34.1734 29.54 34.3167C29.5525 34.3719 29.5525 34.3719 29.5567 34.4334C29.5578 34.4471 29.5588 34.4608 29.5599 34.475C29.567 34.637 29.5211 34.7774 29.4184 34.9036C29.3278 34.9985 29.2345 35.0588 29.1018 35.0723C28.9351 35.0742 28.8108 35.0549 28.6848 34.9407C28.5523 34.7936 28.5242 34.6464 28.5331 34.4542C28.5453 34.2994 28.6157 34.177 28.7234 34.0667C28.8857 33.9402 29.0715 33.9031 29.2629 33.9917Z" fill="#1008B0"/>
  <path d="M33.1234 33.9166C33.1885 33.9347 33.2363 33.9594 33.29 33.9999C33.3079 34.012 33.3258 34.024 33.3442 34.0364C33.4805 34.1757 33.5302 34.3244 33.5295 34.5151C33.5257 34.6887 33.4851 34.8591 33.3567 34.9833C33.2325 35.0814 33.1317 35.1223 32.9744 35.1208C32.9613 35.1209 32.9482 35.121 32.9347 35.1212C32.9219 35.1211 32.9091 35.1211 32.8958 35.121C32.8843 35.121 32.8728 35.121 32.8609 35.1209C32.8124 35.1153 32.7695 35.0991 32.7234 35.0833C32.7222 34.9361 32.7213 34.7889 32.7208 34.6417C32.7205 34.5733 32.7202 34.505 32.7196 34.4367C32.7191 34.3707 32.7188 34.3048 32.7186 34.2389C32.7185 34.2137 32.7184 34.1885 32.7181 34.1634C32.7177 34.1281 32.7177 34.093 32.7177 34.0578C32.7176 34.0377 32.7175 34.0176 32.7174 33.997C32.7203 33.9737 32.7203 33.9737 32.7234 33.9499C32.8292 33.8794 33.0002 33.9042 33.1234 33.9166Z" fill="#1007B0"/>
  <path d="M11.5411 33.928C11.564 33.9273 11.564 33.9273 11.5874 33.9266C11.6944 33.9256 11.782 33.9417 11.8734 33.9999C11.9726 34.1215 11.9676 34.2503 11.9567 34.3999C11.9366 34.4811 11.9032 34.5302 11.8317 34.5739C11.7598 34.606 11.7058 34.6187 11.6273 34.6182C11.6125 34.6181 11.5976 34.6181 11.5824 34.618C11.5594 34.6178 11.5594 34.6178 11.5359 34.6176C11.5125 34.6175 11.5125 34.6175 11.4886 34.6174C11.4502 34.6172 11.4118 34.6169 11.3734 34.6166C11.3421 34.5375 11.3356 34.4669 11.3368 34.3828C11.3368 34.3704 11.3369 34.358 11.3369 34.3452C11.3371 34.3058 11.3375 34.2664 11.338 34.227C11.3381 34.2001 11.3383 34.1733 11.3384 34.1464C11.3388 34.0809 11.3394 34.0154 11.34 33.9499C11.4014 33.9192 11.4736 33.9287 11.5411 33.928Z" fill="#130AAF"/>
  <path d="M13.7911 33.9032C13.8757 33.9364 13.9236 33.9921 13.9734 34.0668C13.9845 34.175 13.9939 34.2947 13.9234 34.3834C13.8508 34.4363 13.778 34.4688 13.688 34.469C13.6682 34.469 13.6682 34.469 13.6481 34.4691C13.6344 34.469 13.6208 34.4689 13.6067 34.4689C13.5862 34.469 13.5862 34.469 13.5653 34.4691C13.5522 34.469 13.539 34.469 13.5255 34.469C13.5135 34.469 13.5015 34.469 13.4891 34.4689C13.4567 34.4668 13.4567 34.4668 13.4067 34.4501C13.4067 34.2741 13.4067 34.0981 13.4067 33.9168C13.5225 33.8589 13.6674 33.8666 13.7911 33.9032Z" fill="#1209AF"/>
  <path d="M19.2567 25.7834C19.2567 25.8334 19.2567 25.8334 19.2356 25.8584C19.221 25.8714 19.221 25.8714 19.2061 25.8847C19.1901 25.8992 19.1901 25.8992 19.1737 25.914C19.1623 25.9242 19.1508 25.9344 19.139 25.9449C19.0499 26.026 18.9671 26.1074 18.89 26.2001C18.8062 26.2957 18.7203 26.3883 18.629 26.4768C18.5964 26.5102 18.5658 26.5442 18.5353 26.5795C18.4841 26.6385 18.4309 26.6952 18.3768 26.7515C18.255 26.8785 18.1431 27.0074 18.04 27.1501C18.0315 27.1618 18.023 27.1735 18.0142 27.1856C17.9586 27.262 17.9034 27.3387 17.8483 27.4155C17.7959 27.4884 17.7429 27.5609 17.69 27.6334C17.6845 27.6224 17.679 27.6114 17.6734 27.6001C18.0782 27.021 18.0782 27.021 18.2567 26.8334C18.2852 26.8023 18.3137 26.771 18.3421 26.7397C18.3561 26.7243 18.3701 26.709 18.3846 26.6931C18.4168 26.6574 18.4484 26.6211 18.4796 26.5845C18.5296 26.5267 18.5835 26.4734 18.638 26.4199C18.7002 26.3587 18.7578 26.2969 18.8119 26.2282C18.8756 26.1481 18.9448 26.0755 19.0171 26.0032C19.0275 25.9929 19.0378 25.9825 19.0485 25.9718C19.1154 25.9057 19.1847 25.8439 19.2567 25.7834Z" fill="#323336"/>
  <path d="M19.2567 25.7834C19.2567 25.8334 19.2567 25.8334 19.2353 25.8587C19.2255 25.8675 19.2157 25.8762 19.2055 25.8853C19.1947 25.8951 19.1839 25.9049 19.1727 25.9151C19.1612 25.9253 19.1498 25.9355 19.138 25.9459C19.0617 26.0142 18.9909 26.0818 18.9272 26.1622C18.9204 26.1692 18.9137 26.1762 18.9067 26.1834C18.8957 26.1834 18.8847 26.1834 18.8734 26.1834C18.8953 26.1348 18.9191 26.1003 18.9569 26.0627C18.9668 26.0529 18.9767 26.043 18.9869 26.0329C18.9972 26.0227 19.0075 26.0126 19.0182 26.0022C19.0332 25.9872 19.0332 25.9872 19.0485 25.9719C19.1153 25.9057 19.1847 25.8439 19.2567 25.7834Z" fill="#383A3C"/>
  <path d="M20.2567 32.7334C20.2567 32.7389 20.2567 32.7444 20.2567 32.75C20.2408 32.7515 20.2408 32.7515 20.2245 32.7531C20.2107 32.7545 20.1969 32.7559 20.1827 32.7573C20.1622 32.7594 20.1622 32.7594 20.1411 32.7614C20.1069 32.7632 20.1069 32.7632 20.09 32.7834C20.0567 32.784 20.0234 32.7841 19.99 32.7834C19.9845 32.7724 19.979 32.7614 19.9734 32.75C20.0678 32.7296 20.1607 32.7318 20.2567 32.7334Z" fill="#0301D6"/>
  <path d="M23.9734 32.7334C24.0174 32.7334 24.0614 32.7334 24.1067 32.7334C24.1067 32.7444 24.1067 32.7554 24.1067 32.7667C24.0109 32.7855 24.0109 32.7855 23.9734 32.7667C23.9734 32.7557 23.9734 32.7447 23.9734 32.7334Z" fill="#0501A1"/>
</svg>