<svg xmlns="http://www.w3.org/2000/svg" width="24" height="24" viewBox="0 0 24 24" fill="none">
  <g clip-path="url(#clip0_4470_6305)">
    <path opacity="0.2" d="M0.363723 13.6945L0.421905 4.96865C0.432087 3.38902 1.53681 2.03484 3.06191 1.73302L11.4888 0.0624719C13.5135 -0.338983 15.3928 1.24574 15.3797 3.34247L15.3215 12.0697C15.3106 13.6487 14.2059 15.0021 12.6808 15.3047L4.25391 16.9752C2.22918 17.3767 0.349905 15.7919 0.363723 13.6945Z" fill="#85888E"/>
    <path opacity="0.5" d="M4.49235 17.1762L4.55054 8.44892C4.55999 6.87073 5.66545 5.51728 7.19054 5.21473L15.6174 3.54492C17.6422 3.14346 19.5214 4.72746 19.5076 6.82492L19.4494 15.5522C19.4393 17.1311 18.3345 18.4846 16.8094 18.7871L8.38254 20.4576C6.35781 20.8584 4.47854 19.2744 4.49235 17.1776V17.1762Z" fill="#85888E"/>
    <path opacity="0.8" d="M8.6211 20.6576L8.67928 11.9303C8.68946 10.3507 9.79419 8.99797 11.3193 8.69542L19.7462 7.02487C21.7709 6.62342 23.6502 8.20815 23.6364 10.3049L23.5782 19.0321C23.568 20.6118 22.4633 21.9652 20.9382 22.2671L12.5113 23.9376C10.4865 24.3391 8.60728 22.7543 8.62037 20.6576H8.6211Z" fill="#85888E"/>
  </g>
  <defs>
    <clipPath id="clip0_4470_6305">
      <rect width="24" height="24" fill="white"/>
    </clipPath>
  </defs>
</svg>