<svg xmlns="http://www.w3.org/2000/svg" width="33" height="32" viewBox="0 0 33 32" fill="none">
  <rect x="2.33334" y="2" width="28" height="28" rx="14" fill="#1275B1"/>
  <path d="M12.9519 9.69215C12.9519 10.6267 12.1419 11.3843 11.1426 11.3843C10.1434 11.3843 9.33334 10.6267 9.33334 9.69215C9.33334 8.7576 10.1434 8 11.1426 8C12.1419 8 12.9519 8.7576 12.9519 9.69215Z" fill="white"/>
  <path d="M9.58077 12.6281H12.6735V22H9.58077V12.6281Z" fill="white"/>
  <path d="M17.6529 12.6281H14.5601V22H17.6529C17.6529 22 17.6529 19.0496 17.6529 17.2049C17.6529 16.0976 18.031 14.9855 19.5395 14.9855C21.2444 14.9855 21.2341 16.4345 21.2261 17.5571C21.2158 19.0244 21.2406 20.5219 21.2406 22H24.3333V17.0537C24.3071 13.8954 23.4842 12.4401 20.7766 12.4401C19.1687 12.4401 18.1721 13.1701 17.6529 13.8305V12.6281Z" fill="white"/>
</svg>