<svg xmlns="http://www.w3.org/2000/svg" width="14" height="14" viewBox="0 0 14 14" fill="none">
  <path d="M11.1111 11.667C11.1111 10.8917 11.1111 10.504 11.0154 10.1886C10.7999 9.47835 10.2441 8.92257 9.53391 8.70712C9.21847 8.61143 8.83081 8.61143 8.0555 8.61143H5.27773C4.50241 8.61143 4.11475 8.61143 3.79931 8.70712C3.08909 8.92257 2.5333 9.47835 2.31786 10.1886C2.22217 10.504 2.22217 10.8917 2.22217 11.667M9.16661 4.16699C9.16661 5.5477 8.04732 6.66699 6.66661 6.66699C5.2859 6.66699 4.16661 5.5477 4.16661 4.16699C4.16661 2.78628 5.2859 1.66699 6.66661 1.66699C8.04732 1.66699 9.16661 2.78628 9.16661 4.16699Z" stroke="#94969C" stroke-width="1.33333" stroke-linecap="round" stroke-linejoin="round"/>
</svg>