<svg xmlns="http://www.w3.org/2000/svg" width="12" height="12" viewBox="0 0 12 12" fill="none">
  <path d="M5.41667 7.5L6.25 6H4.25L5.08333 4.5M11 6.5V5.5M3.4 9H7.1C7.94008 9 8.36012 9 8.68099 8.83651C8.96323 8.6927 9.1927 8.46323 9.33651 8.18099C9.5 7.86012 9.5 7.44008 9.5 6.6V5.4C9.5 4.55992 9.5 4.13988 9.33651 3.81901C9.1927 3.53677 8.96323 3.3073 8.68099 3.16349C8.36012 3 7.94008 3 7.1 3H3.4C2.55992 3 2.13988 3 1.81901 3.16349C1.53677 3.3073 1.3073 3.53677 1.16349 3.81901C1 4.13988 1 4.55992 1 5.4V6.6C1 7.44008 1 7.86012 1.16349 8.18099C1.3073 8.46323 1.53677 8.6927 1.81901 8.83651C2.13988 9 2.55992 9 3.4 9Z" stroke="#94969C" stroke-width="1.5" stroke-linecap="round" stroke-linejoin="round"/>
</svg>